<svg width="44" height="57" viewBox="0 0 44 57" fill="none" xmlns="http://www.w3.org/2000/svg">
<circle cx="22" cy="22" r="21.5" stroke="#969696"/>
<path d="M22 15V11L17 16L22 21V17C25.31 17 28 19.69 28 23C28 26.31 25.31 29 22 29C18.69 29 16 26.31 16 23H14C14 27.42 17.58 31 22 31C26.42 31 30 27.42 30 23C30 18.58 26.42 15 22 15Z" fill="#969696"/>
<path d="M8.8833 51.9678C8.8833 52.5947 8.7749 53.1455 8.55811 53.6201C8.34131 54.0918 8.03076 54.4551 7.62646 54.71C7.2251 54.9619 6.76221 55.0879 6.23779 55.0879C5.71924 55.0879 5.25635 54.9619 4.84912 54.71C4.44482 54.4551 4.13135 54.0933 3.90869 53.6245C3.68896 53.1558 3.57764 52.6152 3.57471 52.0029V51.6426C3.57471 51.0186 3.68457 50.4678 3.9043 49.9902C4.12695 49.5127 4.43896 49.1479 4.84033 48.896C5.24463 48.6411 5.70752 48.5137 6.229 48.5137C6.75049 48.5137 7.21191 48.6396 7.61328 48.8916C8.01758 49.1406 8.32959 49.501 8.54932 49.9727C8.76904 50.4414 8.88037 50.9878 8.8833 51.6118V51.9678ZM7.77148 51.6338C7.77148 50.9248 7.63672 50.3813 7.36719 50.0034C7.10059 49.6255 6.72119 49.4365 6.229 49.4365C5.74854 49.4365 5.37207 49.6255 5.09961 50.0034C4.83008 50.3784 4.69238 50.9102 4.68652 51.5986V51.9678C4.68652 52.6709 4.82275 53.2144 5.09521 53.5981C5.37061 53.9819 5.75146 54.1738 6.23779 54.1738C6.72998 54.1738 7.10791 53.9863 7.37158 53.6113C7.63818 53.2363 7.77148 52.6885 7.77148 51.9678V51.6338ZM14.2358 49.498H12.2407V55H11.1377V49.498H9.16016V48.6016H14.2358V49.498ZM16.521 48.6016L18.3667 53.5059L20.208 48.6016H21.645V55H20.5376V52.8906L20.6475 50.0693L18.7578 55H17.9624L16.0771 50.0737L16.187 52.8906V55H15.0796V48.6016H16.521ZM26.7031 52.1436H24.0752V54.1123H27.147V55H22.9634V48.6016H27.1162V49.498H24.0752V51.2646H26.7031V52.1436ZM33.1323 55H32.0249V52.1567H29.1641V55H28.0522V48.6016H29.1641V51.2646H32.0249V48.6016H33.1323V55ZM38.1113 53.5103H35.6328L35.1143 55H33.9585L36.3755 48.6016H37.373L39.7944 55H38.6343L38.1113 53.5103ZM35.9448 52.6138H37.7993L36.8721 49.9595L35.9448 52.6138Z" fill="#969696"/>
</svg>
