<svg width="47" height="57" viewBox="0 0 47 57" fill="none" xmlns="http://www.w3.org/2000/svg">
<circle cx="24" cy="22" r="21.5" stroke="#969696"/>
<path d="M2.99512 51.9458L4.27832 48.6016H5.51318L3.28516 53.9102L3.08301 54.3101C2.79004 54.8315 2.31543 55.0923 1.65918 55.0923L1.20215 55.0659L1.21094 54.187C1.28125 54.1987 1.40576 54.2046 1.58447 54.2046C1.90088 54.2046 2.12354 54.0698 2.25244 53.8003L2.48096 53.2598L0.29248 48.6016H1.50537L2.99512 51.9458ZM11.8853 56.5732H10.8306V55H6.61621V56.5732H5.54395L5.50879 54.1123H6.02295C6.27783 53.8662 6.48145 53.5088 6.63379 53.04C6.78613 52.5684 6.88428 52.0352 6.92822 51.4404L7.09521 48.6016H11.1294V54.1123H11.9424L11.8853 56.5732ZM7.27979 54.1123H10.022V49.498H8.1543L8.04883 51.2998C7.96973 52.5039 7.71338 53.4414 7.27979 54.1123ZM12.7773 55V48.6016H14.9702C15.6938 48.6016 16.2446 48.7466 16.6226 49.0366C17.0005 49.3267 17.1895 49.7588 17.1895 50.333C17.1895 50.626 17.1104 50.8896 16.9521 51.124C16.7939 51.3584 16.5625 51.54 16.2578 51.6689C16.6035 51.7627 16.8701 51.9399 17.0576 52.2007C17.248 52.4585 17.3433 52.769 17.3433 53.1323C17.3433 53.7329 17.1499 54.1943 16.7632 54.5166C16.3794 54.8389 15.8286 55 15.1108 55H12.7773ZM13.8892 52.1128V54.1123H15.124C15.4727 54.1123 15.7451 54.0259 15.9414 53.853C16.1377 53.6802 16.2358 53.4399 16.2358 53.1323C16.2358 52.4673 15.896 52.1274 15.2163 52.1128H13.8892ZM13.8892 51.2954H14.979C15.3247 51.2954 15.5942 51.2178 15.7876 51.0625C15.9839 50.9043 16.082 50.6816 16.082 50.3945C16.082 50.0781 15.9912 49.8496 15.8096 49.709C15.6309 49.5684 15.3511 49.498 14.9702 49.498H13.8892V51.2954ZM23.5615 51.9678C23.5615 52.5947 23.4531 53.1455 23.2363 53.6201C23.0195 54.0918 22.709 54.4551 22.3047 54.71C21.9033 54.9619 21.4404 55.0879 20.916 55.0879C20.3975 55.0879 19.9346 54.9619 19.5273 54.71C19.123 54.4551 18.8096 54.0933 18.5869 53.6245C18.3672 53.1558 18.2559 52.6152 18.2529 52.0029V51.6426C18.2529 51.0186 18.3628 50.4678 18.5825 49.9902C18.8052 49.5127 19.1172 49.1479 19.5186 48.896C19.9229 48.6411 20.3857 48.5137 20.9072 48.5137C21.4287 48.5137 21.8901 48.6396 22.2915 48.8916C22.6958 49.1406 23.0078 49.501 23.2275 49.9727C23.4473 50.4414 23.5586 50.9878 23.5615 51.6118V51.9678ZM22.4497 51.6338C22.4497 50.9248 22.3149 50.3813 22.0454 50.0034C21.7788 49.6255 21.3994 49.4365 20.9072 49.4365C20.4268 49.4365 20.0503 49.6255 19.7778 50.0034C19.5083 50.3784 19.3706 50.9102 19.3647 51.5986V51.9678C19.3647 52.6709 19.501 53.2144 19.7734 53.5981C20.0488 53.9819 20.4297 54.1738 20.916 54.1738C21.4082 54.1738 21.7861 53.9863 22.0498 53.6113C22.3164 53.2363 22.4497 52.6885 22.4497 51.9678V51.6338ZM28.4087 52.1436H25.7808V54.1123H28.8525V55H24.6689V48.6016H28.8218V49.498H25.7808V51.2646H28.4087V52.1436ZM34.8379 55H33.7305V52.1567H30.8696V55H29.7578V48.6016H30.8696V51.2646H33.7305V48.6016H34.8379V55ZM40.0762 48.6016H41.188V55H40.0762V50.4429L37.2681 55H36.1562V48.6016H37.2681V53.1631L40.0762 48.6016ZM46.2593 52.1436H43.6313V54.1123H46.7031V55H42.5195V48.6016H46.6724V49.498H43.6313V51.2646H46.2593V52.1436Z" fill="#969696"/>
<circle cx="23.5" cy="21.5" r="11.5" fill="#C4C4C4"/>
<path d="M24.0029 25H18.7446V24.103L21.3496 21.2617C21.7256 20.8428 21.9924 20.4937 22.1499 20.2144C22.311 19.9315 22.3916 19.6486 22.3916 19.3657C22.3916 18.9933 22.286 18.6925 22.0747 18.4634C21.867 18.2342 21.5859 18.1196 21.2314 18.1196C20.8089 18.1196 20.4813 18.2485 20.2485 18.5063C20.0158 18.7642 19.8994 19.1169 19.8994 19.5645H18.5942C18.5942 19.0882 18.7017 18.6603 18.9165 18.2808C19.1349 17.8976 19.4447 17.6004 19.8457 17.3892C20.2503 17.1779 20.7158 17.0723 21.2422 17.0723C22.0013 17.0723 22.5993 17.2638 23.0361 17.647C23.4766 18.0265 23.6968 18.5529 23.6968 19.2261C23.6968 19.6164 23.5858 20.0264 23.3638 20.4561C23.1453 20.8822 22.7855 21.3674 22.2842 21.9116L20.3721 23.958H24.0029V25ZM26.6294 21.8213L27.6753 20.0234H28.6733L27.1694 22.4912L28.7075 25H27.6992L26.6294 23.1748L25.5562 25H24.5513L26.0928 22.4912L24.5854 20.0234H25.5835L26.6294 21.8213Z" fill="white"/>
</svg>
