<svg width="44" height="44" viewBox="0 0 44 44" fill="none" xmlns="http://www.w3.org/2000/svg">
<path d="M38.4611 18.5209C38.2188 17.4131 37.9072 16.3745 37.4572 15.3706C37.0418 14.4013 36.5571 13.5012 35.9686 12.6357C35.3455 11.701 34.6531 10.8702 33.8569 10.074C33.026 9.24313 32.1259 8.51614 31.1566 7.89301C30.2219 7.30449 29.2526 6.78522 28.2141 6.3698C27.2794 5.989 26.2754 5.67743 25.2369 5.46972C24.9946 5.4351 24.7522 5.36586 24.5099 5.33125C24.4407 5.33125 24.3714 5.29663 24.3022 5.29663C24.1291 5.26201 23.956 5.26201 23.7829 5.22739C23.7137 5.22739 23.6098 5.19277 23.5406 5.19277C23.3329 5.15815 23.0905 5.15815 22.8828 5.15815H22.8136C22.5366 5.15815 22.2597 5.12354 21.9828 5.12354C21.7058 5.12354 21.3942 5.12353 21.1173 5.15815H21.0481C20.8057 5.15815 20.5634 5.19277 20.3211 5.22739C20.2518 5.22739 20.148 5.26201 20.0787 5.26201C19.9056 5.29663 19.6979 5.29663 19.5248 5.33125C19.4556 5.33125 19.3518 5.36586 19.2825 5.36586C19.0402 5.40048 18.7632 5.4351 18.5209 5.50434C17.4131 5.74667 16.3746 6.05823 15.3706 6.50827C14.4013 6.92369 13.5012 7.40835 12.6358 7.99686C11.7011 8.61999 10.8702 9.31236 10.074 10.1086C9.24318 10.9394 8.51619 11.8395 7.89306 12.8088C7.30454 13.7435 6.78527 14.7128 6.36985 15.7514C5.98905 16.6861 5.67748 17.69 5.46977 18.7286C5.26206 19.8017 5.1582 20.8749 5.1582 22.0173C5.1582 23.1943 5.29668 24.3714 5.50439 25.4792C5.74672 26.587 6.05828 27.6255 6.50832 28.6294C6.92374 29.5987 7.4084 30.4988 7.99691 31.3643C8.62004 32.299 9.31241 33.1298 10.1086 33.9261C10.9395 34.7569 11.8396 35.4839 12.8089 36.107C13.7436 36.6955 14.7129 37.2148 15.7514 37.6302C16.6861 38.011 17.6901 38.3226 18.7286 38.5303C18.9709 38.5649 19.2133 38.6342 19.4556 38.6688C19.5248 38.6688 19.5941 38.7034 19.6633 38.7034C19.8364 38.738 20.0095 38.738 20.1826 38.7726C20.2518 38.7726 20.3557 38.8072 20.4249 38.8072C20.6326 38.8419 20.875 38.8419 21.0827 38.8419C21.3942 38.8419 21.6712 38.8765 21.9828 38.8765C23.1598 38.8765 24.3368 38.738 25.4446 38.5303C26.5524 38.288 27.5909 37.9764 28.5949 37.5264C29.5642 37.1109 30.4643 36.6263 31.3297 36.0378C32.2644 35.4146 33.0953 34.7223 33.8915 33.9261C34.7223 33.0952 35.4493 32.1951 36.0724 31.2258C36.661 30.2911 37.1802 29.3218 37.5957 28.2832C37.9765 27.3486 38.288 26.3446 38.4957 25.3061C38.7034 24.2329 38.8073 23.1597 38.8073 22.0173C38.8073 20.8057 38.7034 19.6286 38.4611 18.5209ZM24.7868 5.40048C24.7522 5.40048 24.683 5.36586 24.6484 5.36586C24.683 5.40048 24.7176 5.40048 24.7868 5.40048ZM24.2329 5.33125C24.0945 5.33125 23.9906 5.29663 23.8521 5.29663C23.9906 5.29663 24.0945 5.29663 24.2329 5.33125ZM23.5406 5.22739C23.3329 5.19277 23.1252 5.19277 22.9174 5.19277C23.1252 5.19277 23.3329 5.22739 23.5406 5.22739ZM21.0481 5.19277C20.8057 5.19277 20.598 5.22739 20.3557 5.26201C20.598 5.22739 20.8057 5.22739 21.0481 5.19277ZM20.0095 5.29663C19.871 5.29663 19.7326 5.33125 19.5941 5.36586C19.7672 5.33125 19.9056 5.29663 20.0095 5.29663ZM19.2133 5.40048C19.144 5.40048 19.1094 5.4351 19.0748 5.4351C19.1094 5.4351 19.1787 5.40048 19.2133 5.40048ZM19.2133 38.5649C19.2479 38.5649 19.3171 38.5995 19.3518 38.5995C19.3171 38.5995 19.2479 38.5995 19.2133 38.5649ZM19.7326 38.6688C19.871 38.7034 19.9749 38.7034 20.1134 38.7034C20.0095 38.7034 19.871 38.6688 19.7326 38.6688ZM20.4249 38.738C20.6326 38.7726 20.8403 38.7726 21.0481 38.7726C20.875 38.7726 20.6673 38.7726 20.4249 38.738Z" fill="#790920"/>
<path d="M5.64256 28.9756C5.19252 27.9024 4.84634 26.7947 4.60401 25.6522C4.50015 25.1676 4.43092 24.6829 4.36168 24.1983L0.172852 24.7175C0.242088 25.3407 0.345944 25.9292 0.484417 26.5177C0.795983 27.9371 1.2114 29.3218 1.79992 30.6373C1.90377 30.8796 2.00763 31.122 2.1461 31.3643L5.95413 29.5641C5.81565 29.3564 5.74642 29.1833 5.64256 28.9756Z" fill="#F5F8F5"/>
<path d="M40.3993 34.0645L36.8682 31.7451C36.2104 32.749 35.4142 33.7183 34.5834 34.5838C34.1333 35.0338 33.6141 35.4838 33.1294 35.8993L35.7604 39.188C36.3835 38.6687 37.0067 38.1495 37.5606 37.5609C38.5991 36.4878 39.5684 35.3108 40.3993 34.0645Z" fill="#F5F8F5"/>
<path d="M15.3706 38.4957C14.5744 38.1841 13.7782 37.8033 13.0512 37.3533L10.9395 40.9882C11.8741 41.5421 12.8435 41.9921 13.8474 42.4076C14.9898 42.8576 16.1668 43.2384 17.4131 43.4807L18.3132 39.3611C17.2746 39.1534 16.3053 38.8419 15.3706 38.4957Z" fill="#F5F8F5"/>
<path d="M38.3228 14.9898C38.7728 16.0629 39.119 17.1707 39.3613 18.3131C39.4652 18.7978 39.5344 19.2825 39.6037 19.7671L43.7925 19.2478C43.7233 18.6247 43.6194 18.0362 43.4809 17.4477C43.1694 16.0283 42.7539 14.6436 42.1654 13.3281C42.0616 13.0858 41.9577 12.8434 41.8193 12.6011L38.0112 14.4013C38.1497 14.609 38.2536 14.8167 38.3228 14.9898Z" fill="#F5F8F5"/>
<path d="M28.5949 5.50434C29.3911 5.8159 30.1874 6.19671 30.9143 6.64675L33.0261 3.01181C32.0914 2.45792 31.1221 2.00788 30.1181 1.59246C28.9757 1.14242 27.7987 0.761616 26.5524 0.519287L25.6523 4.63888C26.7255 4.84659 27.6948 5.12354 28.5949 5.50434Z" fill="#F5F8F5"/>
<path d="M43.8269 19.2478L39.6381 19.7671C39.5688 19.2825 39.4996 18.7978 39.3958 18.3131C39.1534 17.1707 38.8072 16.0283 38.3572 14.9898C38.288 14.7821 38.1841 14.609 38.0802 14.4013L41.8883 12.6011C41.4382 11.6318 40.8843 10.6625 40.2958 9.76239C39.4996 8.55075 38.5649 7.44296 37.561 6.43902C36.4878 5.36585 35.3108 4.39654 34.0299 3.5657C33.7183 3.35799 33.4068 3.18489 33.0952 2.97718L30.9835 6.61212C30.2219 6.16208 29.4603 5.78127 28.6294 5.46971C27.6947 5.08891 26.76 4.81196 25.7561 4.60425L26.6562 0.484658C26.5523 0.450039 26.4485 0.450039 26.3446 0.415421C24.8906 0.138474 23.4713 0 21.9827 0C20.4249 0 18.9363 0.173092 17.4477 0.484658C16.0283 0.796223 14.6436 1.21164 13.3281 1.80016C12.0818 2.31943 10.9048 2.97718 9.76239 3.73879C9.24312 4.08497 8.72384 4.46578 8.23918 4.84658L10.8702 8.13533C10.3509 8.55075 9.86625 8.96617 9.41621 9.45083C8.55075 10.3163 7.75452 11.2856 7.09677 12.3242L7.13139 12.2895L3.60031 9.9701L3.5657 10.0047C2.76947 11.1817 2.11172 12.4626 1.55783 13.8127C1.07317 15.059 0.692368 16.3399 0.415421 17.69C0.138474 19.0747 0 20.5287 0 21.9827C0 22.9174 0.0692368 23.8175 0.173092 24.7175L4.36192 24.1983C4.43116 24.6829 4.50039 25.1676 4.60425 25.6522C4.84658 26.7946 5.19276 27.9371 5.6428 28.9756C5.71204 29.1833 5.81589 29.3564 5.91975 29.5641L2.11172 31.3643C2.56176 32.3682 3.11566 33.3029 3.70417 34.203C4.50039 35.4146 5.43509 36.5224 6.43902 37.5264C7.5122 38.5995 8.68922 39.5688 9.9701 40.3997C10.2817 40.6074 10.5932 40.7805 10.9048 40.9882L13.0165 37.3533C13.7781 37.8033 14.5397 38.1841 15.3706 38.4957C16.3745 38.9111 17.4131 39.2227 18.5208 39.4304C18.417 39.3958 18.3478 39.3958 18.2439 39.3611L17.3438 43.4807C17.4477 43.5153 17.5515 43.5153 17.6554 43.55C19.0401 43.8269 20.4941 43.9654 21.9481 43.9654C23.5059 43.9654 25.0291 43.7923 26.4831 43.4807C27.9024 43.1692 29.2872 42.7537 30.6027 42.1652C31.8489 41.646 33.026 40.9882 34.1684 40.2266C34.6876 39.8804 35.2069 39.4996 35.6916 39.1188L33.0606 35.8301C33.5799 35.4146 34.0645 34.9992 34.5146 34.5146C35.38 33.6491 36.1416 32.7144 36.7994 31.6758L40.3304 33.9953L40.3651 33.9607C41.1613 32.749 41.819 31.4681 42.3729 30.118C42.8576 28.8718 43.273 27.5909 43.5153 26.2408C43.7923 24.856 43.9308 23.402 43.9308 21.9481C44 21.048 43.9308 20.1479 43.8269 19.2478ZM37.8379 13.9166C37.8033 13.8474 37.7687 13.7781 37.7341 13.7435C37.7687 13.8127 37.8033 13.882 37.8379 13.9166ZM37.1456 12.7396C37.0071 12.5319 36.9032 12.3242 36.7648 12.1164C36.9032 12.3242 37.0417 12.5319 37.1456 12.7396ZM37.5264 13.3281C37.4571 13.2242 37.4225 13.1204 37.3533 13.0165C37.3879 13.155 37.4571 13.2242 37.5264 13.3281ZM12.1164 7.20063C11.9087 7.3391 11.701 7.47758 11.4933 7.65067C11.701 7.5122 11.9087 7.37372 12.1164 7.20063ZM4.29268 23.6098V23.679V23.6098ZM4.22345 22.502C4.22345 22.5366 4.22345 22.6058 4.22345 22.6404C4.22345 22.6058 4.22345 22.5712 4.22345 22.502ZM4.25806 23.0559C4.25806 23.0905 4.25806 23.1251 4.25806 23.1943C4.25806 23.1251 4.25806 23.0905 4.25806 23.0559ZM6.16208 30.0488C6.1967 30.118 6.23131 30.1873 6.26593 30.2219C6.23131 30.1873 6.1967 30.118 6.16208 30.0488ZM6.81983 31.2258C6.9583 31.4335 7.06216 31.6412 7.20063 31.8489C7.09677 31.6412 6.9583 31.4335 6.81983 31.2258ZM6.47364 30.6373C6.54288 30.7411 6.5775 30.845 6.64674 30.9489C6.5775 30.845 6.54288 30.7411 6.47364 30.6373ZM31.8489 36.7648C32.0566 36.6263 32.2644 36.4878 32.4721 36.3147C32.299 36.4878 32.0566 36.6263 31.8489 36.7648ZM34.93 30.4296C34.3415 31.3297 33.6837 32.1605 32.9221 32.9221C32.1951 33.6491 31.4335 34.2722 30.5681 34.8607C29.7718 35.38 28.941 35.8301 28.0755 36.2109C27.1408 36.5917 26.1715 36.9032 25.1676 37.1109C24.129 37.3186 23.0905 37.4571 21.9827 37.4571C20.9441 37.4571 19.9402 37.3533 18.9709 37.1456C18.0362 36.9725 17.1361 36.6955 16.236 36.3493C15.3013 35.9685 14.4013 35.4839 13.5358 34.93C12.6357 34.3415 11.8049 33.6837 11.0433 32.9221C10.3163 32.1951 9.69315 31.4335 9.10464 30.5681C8.58537 29.7718 8.13533 28.941 7.75452 28.0755C7.37372 27.1408 7.06216 26.1715 6.85444 25.1676C6.64673 24.129 6.50826 23.0905 6.50826 21.9827C6.50826 20.9441 6.61212 19.9402 6.81983 18.9709C6.99292 18.0362 7.26987 17.1361 7.61605 16.236C7.99685 15.3013 8.48151 14.4013 9.03541 13.5358C9.62392 12.6357 10.2817 11.8049 11.0433 11.0433C11.7703 10.3163 12.5319 9.69315 13.3973 9.10464C14.1935 8.58537 15.0244 8.13533 15.8899 7.75452C16.8245 7.37372 17.7939 7.06216 18.7978 6.85444C19.8363 6.64673 20.8749 6.50826 21.9827 6.50826C23.0212 6.50826 24.0252 6.61212 24.9945 6.81983C25.9292 6.99292 26.8293 7.26987 27.7293 7.61605C28.664 7.99685 29.5641 8.48151 30.4296 9.03541C31.3297 9.62392 32.1605 10.2817 32.9221 11.0433C33.6491 11.7703 34.2722 12.5319 34.8607 13.3973C35.38 14.1935 35.8301 15.0244 36.2109 15.8899C36.5917 16.8245 36.9032 17.7939 37.1109 18.7978C37.3186 19.8363 37.4571 20.8749 37.4571 21.9827C37.4571 23.0212 37.3533 24.0252 37.1456 24.9945C36.9725 25.9292 36.6955 26.8293 36.3493 27.7293C35.9339 28.664 35.4839 29.5641 34.93 30.4296ZM39.6727 20.2864V20.3556V20.2864ZM39.7073 20.8057C39.7073 20.8403 39.7073 20.8749 39.7073 20.9095C39.7073 20.8749 39.7073 20.8403 39.7073 20.8057ZM39.7419 21.3249C39.7419 21.3596 39.7419 21.3942 39.7419 21.4634C39.7419 21.4288 39.7419 21.3942 39.7419 21.3249Z" fill="#971E36"/>
<path d="M9.41648 9.4162C9.86652 8.96616 10.3858 8.51612 10.8705 8.1007L8.23945 4.81195C7.61632 5.33123 6.99319 5.8505 6.4393 6.43902C5.36613 7.51219 4.43143 8.65459 3.60059 9.93547L7.13166 12.2549C7.78941 11.2164 8.58564 10.2817 9.41648 9.4162Z" fill="#F5F8F5"/>
<path d="M35.8993 19.0747C35.6916 18.14 35.4147 17.2746 35.0685 16.4091C34.7223 15.6129 34.3069 14.8513 33.8222 14.1243C33.3029 13.3627 32.7144 12.6357 32.0567 11.978C31.3643 11.2856 30.6027 10.6625 29.7719 10.1432C29.0102 9.62392 28.1794 9.2085 27.3139 8.86231C26.5177 8.55075 25.6869 8.2738 24.8214 8.10071C23.9213 7.92762 22.9866 7.82376 22.0519 7.82376C21.048 7.82376 20.0787 7.92762 19.1094 8.13533C18.1747 8.34304 17.3092 8.61998 16.4438 8.96617C15.6475 9.31235 14.8859 9.72777 14.1589 10.2124C13.3973 10.7317 12.6704 11.3202 12.0126 11.978C11.3202 12.6703 10.6971 13.4319 10.1778 14.2628C9.65856 15.0244 9.24313 15.8552 8.89695 16.7207C8.58539 17.5169 8.30844 18.3478 8.13535 19.2132C7.96225 20.1133 7.8584 21.048 7.8584 21.9827C7.8584 22.9866 7.96225 23.9559 8.16996 24.9253C8.37767 25.86 8.65462 26.7254 9.00081 27.5909C9.34699 28.3871 9.76241 29.1487 10.2471 29.8757C10.7663 30.6373 11.3549 31.3643 12.0126 32.022C12.705 32.7144 13.4666 33.3375 14.2974 33.8568C15.059 34.3761 15.8899 34.7915 16.7553 35.1377C17.5516 35.4493 18.3824 35.7262 19.2479 35.8993C19.9402 36.0378 20.6326 36.107 21.325 36.1416C20.6326 36.107 19.9402 36.0378 19.2825 35.8993C18.417 35.7262 17.5862 35.4839 16.8246 35.1723C15.9591 34.8261 15.1629 34.4107 14.3667 33.8914C13.5358 33.3721 12.8088 32.749 12.1165 32.0566C11.4587 31.3989 10.8702 30.7065 10.3855 29.9103C9.90088 29.1833 9.48546 28.4563 9.13928 27.6601C8.7931 26.8293 8.51615 25.9292 8.30844 25.0291C8.06611 24.129 7.96225 23.1597 7.96225 22.1558C7.96225 21.2211 8.06611 20.2864 8.2392 19.4209C8.41229 18.5555 8.65462 17.7246 8.96619 16.963C9.31237 16.0976 9.72779 15.3013 10.2471 14.5051C10.7663 13.6743 11.3895 12.9473 12.0818 12.2549C12.7396 11.5972 13.432 11.0087 14.2282 10.4894C14.9552 10.0047 15.6822 9.5893 16.4784 9.24312C17.3092 8.89693 18.2093 8.61998 19.1094 8.41227C20.0441 8.20456 21.0134 8.10071 22.0173 8.10071C22.952 8.10071 23.8867 8.20456 24.7522 8.37766C25.6176 8.55075 26.4485 8.79308 27.2101 9.10464C28.0756 9.45083 28.8718 9.86625 29.668 10.3855C30.4988 10.9048 31.2258 11.5279 31.9182 12.2203C32.5759 12.878 33.1645 13.5704 33.6491 14.3666C34.1338 15.0936 34.5492 15.8206 34.8954 16.6168C35.2416 17.4477 35.5185 18.3478 35.7262 19.2478C35.9339 20.1825 36.0378 21.1518 36.0378 22.1558C36.0378 23.0905 35.9339 24.0252 35.7608 24.8906C35.5877 25.7561 35.3454 26.5869 35.0338 27.3485C34.6877 28.214 34.2722 29.0102 33.753 29.8065C33.2337 30.6373 32.6106 31.3643 31.9182 32.0566C31.2604 32.7144 30.5681 33.3029 29.7719 33.7876C29.0449 34.2722 28.3179 34.6876 27.5217 35.0338C26.6908 35.38 25.7907 35.657 24.8907 35.8647C23.956 36.0724 22.9866 36.1762 21.9827 36.1762C22.9866 36.1762 23.956 36.0724 24.9253 35.8647C25.86 35.657 26.7254 35.38 27.5909 35.0338C28.3871 34.6876 29.1487 34.2722 29.8757 33.7876C30.6373 33.2683 31.3643 32.6798 32.0221 32.022C32.7144 31.3297 33.3376 30.5681 33.8568 29.7372C34.3761 28.9756 34.7915 28.1448 35.1377 27.2793C35.4493 26.4831 35.7262 25.6522 35.8993 24.7868C36.0724 23.8867 36.1763 22.952 36.1763 22.0173C36.1763 20.9788 36.0724 20.0094 35.8993 19.0747Z" fill="#73EA8A"/>
<path d="M8.82739 13.3973C8.27349 14.2628 7.78883 15.1975 7.40803 16.1322C7.06185 17.0323 6.7849 17.967 6.57719 18.9017C6.36948 19.9056 6.26562 20.9441 6.26562 21.9827C6.26562 23.0559 6.36948 24.1637 6.61181 25.2368C6.81952 26.2408 7.13108 27.2101 7.54651 28.1794C7.92731 29.0449 8.37735 29.9103 8.93124 30.7065C9.48514 31.5374 10.1429 32.3336 10.9045 33.0952C11.7007 33.8914 12.5316 34.5492 13.4316 35.1377C14.2971 35.6916 15.2318 36.1762 16.1665 36.5571C17.0666 36.9032 18.0013 37.1802 18.936 37.3879C19.9399 37.5956 20.9784 37.6995 22.017 37.6995C23.0902 37.6995 24.198 37.5956 25.2711 37.3533C26.2751 37.1456 27.2444 36.834 28.2137 36.4186C29.0792 36.0378 29.9446 35.5877 30.7408 35.0338C31.5717 34.4799 32.3679 33.8222 33.1295 33.0606C33.9257 32.2644 34.5835 31.4335 35.172 30.5334C35.7259 29.668 36.2106 28.7333 36.5914 27.7986C36.9375 26.8985 37.2145 25.9638 37.4222 25.0291C37.6299 24.0252 37.7338 22.9866 37.7338 21.9481C37.7338 20.8749 37.6299 19.7671 37.3876 18.694C37.1799 17.69 36.8683 16.7207 36.4529 15.7514C36.0721 14.8859 35.622 14.0205 35.0681 13.2242C34.5142 12.3934 33.8565 11.5972 33.0949 10.8356C32.2987 10.0393 31.4678 9.3816 30.5678 8.79309C29.7023 8.23919 28.7676 7.75453 27.8329 7.37373C26.9328 7.02755 25.9981 6.7506 25.0634 6.54289C24.0595 6.33518 23.0209 6.23132 21.9824 6.23132C20.9092 6.23132 19.8014 6.33518 18.7283 6.57751C17.7243 6.78522 16.755 7.09678 15.7857 7.5122C14.9202 7.89301 14.0548 8.34305 13.2585 8.89694C12.4277 9.45084 11.6315 10.1086 10.8699 10.8702C10.1083 11.6664 9.4159 12.4973 8.82739 13.3973ZM16.305 8.72385C17.1704 8.34305 18.1051 8.0661 19.0052 7.85839C19.9745 7.65068 20.9784 7.54682 21.9824 7.54682C22.9171 7.54682 23.8864 7.65068 24.8211 7.82377C25.6866 7.99686 26.552 8.23919 27.3829 8.58537C28.2483 8.93156 29.1138 9.3816 29.91 9.90087C30.7408 10.4548 31.5024 11.0779 32.2294 11.7703C32.9218 12.4626 33.5103 13.1896 34.0296 13.9512C34.5142 14.7128 34.9643 15.4744 35.2759 16.3053C35.6567 17.1707 35.9336 18.1054 36.1413 19.0055C36.349 19.9748 36.4529 20.9788 36.4529 21.9827C36.4529 22.9174 36.349 23.8867 36.1759 24.8214C36.0028 25.6869 35.7605 26.5523 35.4143 27.3832C35.0681 28.2486 34.6181 29.1141 34.0988 29.9103C33.5449 30.7065 32.9218 31.5028 32.1948 32.1951C31.5024 32.8875 30.7755 33.476 30.0139 33.9953C29.2522 34.4799 28.4906 34.93 27.6598 35.2416C26.7943 35.6224 25.8596 35.8993 24.9596 36.107C23.9903 36.3147 22.9863 36.4186 21.9824 36.4186C21.0477 36.4186 20.0784 36.3147 19.1437 36.1416C18.2782 35.9685 17.4128 35.7262 16.5819 35.38C15.7165 35.0338 14.851 34.5838 14.0548 34.0645C13.2239 33.5106 12.4623 32.8875 11.7353 32.1951C11.043 31.5028 10.4545 30.7758 9.93518 30.0142C9.45052 29.2526 9.00048 28.491 8.68891 27.6601C8.30811 26.7947 8.03116 25.86 7.82345 24.9599C7.61574 23.9906 7.51189 22.9866 7.51189 21.9827C7.51189 21.048 7.61574 20.0787 7.78883 19.144C7.96193 18.2785 8.20426 17.4131 8.55044 16.5822C8.89662 15.7168 9.34666 14.8513 9.86594 14.0551C10.3852 13.2242 11.043 12.4626 11.7353 11.7357C12.4277 11.0433 13.1547 10.4548 13.9163 9.93549C14.7125 9.48545 15.5087 9.07003 16.305 8.72385Z" fill="url(#paint0_linear)"/>
<path d="M33.7875 14.1243L34.8261 13.4319C34.2722 12.6011 33.6144 11.8049 32.8874 11.0779L32.022 11.9433C32.6797 12.6011 33.2682 13.3281 33.7875 14.1243Z" fill="#790920"/>
<path d="M35.0339 16.4091L36.1763 15.9245C35.7955 15.059 35.3454 14.2282 34.8262 13.4319L33.7876 14.1243C34.2723 14.8167 34.6877 15.6129 35.0339 16.4091Z" fill="#DDE3DF"/>
<path d="M35.8997 19.0747L37.1113 18.8324C36.9036 17.8285 36.5921 16.8592 36.2113 15.9245L35.0688 16.4091C35.415 17.24 35.692 18.14 35.8997 19.0747Z" fill="#790920"/>
<path d="M32.022 32.022L32.8874 32.8875C33.649 32.1259 34.3068 31.2951 34.8953 30.395L33.8567 29.7026C33.3375 30.5681 32.7143 31.3297 32.022 32.022Z" fill="#DDE3DF"/>
<path d="M8.82779 16.7207L7.68538 16.2707C7.3392 17.1361 7.06225 18.0362 6.88916 19.0055L8.1008 19.2478C8.23928 18.3478 8.48161 17.5169 8.82779 16.7207Z" fill="#DDE3DF"/>
<path d="M8.1008 24.9253L6.88916 25.1676C7.09687 26.1715 7.40844 27.1408 7.78924 28.0755L8.93165 27.5909C8.58546 26.7254 8.30851 25.8253 8.1008 24.9253Z" fill="#790920"/>
<path d="M8.06618 19.2132L6.85453 18.9709C6.64682 19.9402 6.54297 20.9441 6.54297 21.9827H7.78923C7.78923 21.048 7.89309 20.1133 8.06618 19.2132Z" fill="#790920"/>
<path d="M7.78923 21.9827H6.54297C6.54297 23.0905 6.64682 24.129 6.88915 25.1676L8.1008 24.9253C7.89309 23.9559 7.78923 22.9866 7.78923 21.9827Z" fill="#DDE3DF"/>
<path d="M8.93147 27.5909L7.78906 28.0755C8.16987 28.941 8.6199 29.7718 9.13918 30.568L10.1777 29.8757C9.69308 29.1487 9.27765 28.3871 8.93147 27.5909Z" fill="#DDE3DF"/>
<path d="M11.9431 32.022L11.0776 32.9221C11.8392 33.6837 12.6701 34.3415 13.5702 34.93L14.2625 33.8914C13.4317 33.3375 12.6355 32.7144 11.9431 32.022Z" fill="#DDE3DF"/>
<path d="M10.1777 29.8757L9.13916 30.5681C9.69306 31.3989 10.3508 32.1951 11.0778 32.9221L11.9433 32.0567C11.2855 31.3643 10.697 30.6373 10.1777 29.8757Z" fill="#790920"/>
<path d="M14.228 33.8914L13.5356 34.93C14.3665 35.4839 15.2666 35.9685 16.2359 36.3493L16.6859 35.2069C15.8551 34.8261 15.0242 34.3761 14.228 33.8914Z" fill="#790920"/>
<path d="M10.1083 14.2282L9.06975 13.5358C8.51585 14.3666 8.03119 15.2667 7.65039 16.236L8.7928 16.6861C9.1736 15.8552 9.58902 15.0244 10.1083 14.2282Z" fill="#790920"/>
<path d="M21.9827 7.78914V6.54288C20.875 6.54288 19.8364 6.64673 18.7979 6.88906L19.0402 8.10071C20.0095 7.893 20.9788 7.78914 21.9827 7.78914Z" fill="#DDE3DF"/>
<path d="M16.4093 8.93156L15.9247 7.78915C15.0592 8.16996 14.2284 8.62 13.4321 9.13927L14.1245 10.1778C14.8169 9.69317 15.6131 9.27775 16.4093 8.93156Z" fill="#DDE3DF"/>
<path d="M19.0746 8.10071L18.8323 6.88907C17.8283 7.09678 16.859 7.40835 15.9243 7.78915L16.409 8.93156C17.2398 8.58537 18.1399 8.30842 19.0746 8.10071Z" fill="#790920"/>
<path d="M11.9432 11.9433L11.0777 11.0779C10.3161 11.8395 9.65834 12.6703 9.06982 13.5704L10.1084 14.2628C10.6277 13.4319 11.2508 12.6357 11.9432 11.9433Z" fill="#DDE3DF"/>
<path d="M14.1241 10.1778L13.4317 9.13928C12.6008 9.69318 11.8046 10.3509 11.0776 11.0779L11.9431 11.9434C12.6008 11.2856 13.3278 10.6971 14.1241 10.1778Z" fill="#790920"/>
<path d="M35.8989 19.0748C36.1066 20.0095 36.2105 21.0134 36.2105 22.0173H37.4568C37.4568 20.9095 37.3529 19.871 37.1106 18.8324L35.8989 19.0748Z" fill="#DDE3DF"/>
<path d="M35.8989 24.7522L37.1106 24.9945C37.3183 24.0252 37.4221 23.0212 37.4221 21.9827H36.1759C36.1759 22.952 36.1066 23.8867 35.8989 24.7522Z" fill="#790920"/>
<path d="M32.0221 11.9433L32.8875 11.0779C32.1259 10.3163 31.2951 9.65852 30.395 9.07001L29.7026 10.1086C30.5681 10.6625 31.3297 11.251 32.0221 11.9433Z" fill="#DDE3DF"/>
<path d="M35.1724 27.2793L36.3148 27.7294C36.661 26.8639 36.9379 25.9638 37.111 24.9945L35.8993 24.7522C35.7263 25.6176 35.4839 26.4831 35.1724 27.2793Z" fill="#DDE3DF"/>
<path d="M16.7205 35.1723L16.2705 36.3147C17.136 36.6609 18.036 36.9378 19.0054 37.1109L19.2477 35.8993C18.3476 35.7262 17.5168 35.4839 16.7205 35.1723Z" fill="#DDE3DF"/>
<path d="M29.7372 10.1086L30.4296 9.07002C29.5987 8.51613 28.6986 8.03147 27.7293 7.65067L27.2793 8.79307C28.1448 9.17388 28.9756 9.5893 29.7372 10.1086Z" fill="#790920"/>
<path d="M27.2791 8.8277L27.7291 7.68529C26.8637 7.33911 25.9636 7.06216 24.9943 6.88907L24.752 8.10071C25.6174 8.23919 26.4829 8.48152 27.2791 8.8277Z" fill="#DDE3DF"/>
<path d="M33.8916 29.7372L34.9302 30.4296C35.484 29.5988 35.9687 28.6987 36.3495 27.7294L35.2071 27.2793C34.8263 28.1448 34.3763 28.9756 33.8916 29.7372Z" fill="#790920"/>
<path d="M21.9829 36.1763V37.4225C23.0907 37.4225 24.1293 37.3187 25.1678 37.0763L24.9255 35.8647C23.9562 36.0724 22.9868 36.1763 21.9829 36.1763Z" fill="#DDE3DF"/>
<path d="M24.7524 8.06609L24.9947 6.85444C24.0254 6.64673 23.0215 6.54288 21.9829 6.54288V7.78914C22.9522 7.78914 23.8869 7.89299 24.7524 8.06609Z" fill="#790920"/>
<path d="M19.2135 35.8993L18.9712 37.1109C19.9405 37.3186 20.9444 37.4225 21.983 37.4225V36.1762C21.0483 36.1762 20.1136 36.107 19.2135 35.8993Z" fill="#790920"/>
<path d="M24.9253 35.8993L25.1676 37.1109C26.1716 36.9032 27.1409 36.5917 28.0756 36.2109L27.5909 35.0685C26.7255 35.4146 25.8254 35.6916 24.9253 35.8993Z" fill="#790920"/>
<path d="M27.5908 35.0338L28.0755 36.1762C28.9409 35.7954 29.7718 35.3454 30.568 34.8261L29.8756 33.7876C29.1487 34.2722 28.387 34.6876 27.5908 35.0338Z" fill="#DDE3DF"/>
<path d="M29.876 33.7876L30.5683 34.8261C31.3992 34.2722 32.1954 33.6145 32.9224 32.8875L32.0569 32.022C31.3646 32.6798 30.6376 33.2683 29.876 33.7876Z" fill="#790920"/>
<path d="M4.43115 24.7868C4.43115 24.8214 4.43115 24.8906 4.46577 24.9252C4.46577 24.8906 4.46577 24.8214 4.43115 24.7868Z" fill="#790920"/>
<path d="M34.5493 34.5492C35.4148 33.6837 36.1764 32.749 36.8341 31.7104C36.1764 32.749 35.4148 33.6837 34.5493 34.5492Z" fill="#790920"/>
<path d="M16.79 38.9803C17.2747 39.1188 17.7594 39.2573 18.244 39.3611C17.7594 39.2573 17.2747 39.1188 16.79 38.9803Z" fill="#790920"/>
<path d="M16.0977 38.738C16.3054 38.8072 16.4785 38.8765 16.6862 38.9111C16.4785 38.8765 16.3054 38.8072 16.0977 38.738Z" fill="#790920"/>
<path d="M8.20452 10.7663C7.82372 11.251 7.47753 11.7356 7.13135 12.2203C7.47753 11.7356 7.82372 11.251 8.20452 10.7663Z" fill="#F7F8F7"/>
<path d="M8.79315 10.0739C8.62006 10.2817 8.41235 10.4894 8.23926 10.6971C8.44697 10.524 8.62006 10.2817 8.79315 10.0739Z" fill="#F7F8F7"/>
<path d="M2.38848 31.2258C2.28462 30.9835 2.18077 30.7412 2.07691 30.4988C1.52302 29.218 1.1076 27.8332 0.796032 26.4485C0.657559 25.86 0.588322 25.2715 0.519085 24.683L0.20752 24.7176C0.276756 25.3407 0.380612 25.9292 0.519085 26.5177C0.830651 27.9371 1.24607 29.3218 1.83458 30.6373C1.93844 30.8796 2.0423 31.122 2.18077 31.3643L2.38848 31.2258Z" fill="url(#paint1_linear)"/>
<path d="M37.3187 37.3187C36.7648 37.8725 36.1417 38.4264 35.5186 38.9111L35.7263 39.1534C36.3494 38.6342 36.9725 38.1149 37.5264 37.5264C38.5996 36.4532 39.5343 35.2762 40.3651 34.0299L40.0882 33.8568C39.292 35.1031 38.3573 36.2801 37.3187 37.3187Z" fill="url(#paint2_linear)"/>
<path d="M13.9166 42.1306C12.9127 41.7498 11.978 41.2651 11.0779 40.7458L10.9048 41.0228C11.8395 41.5767 12.8088 42.0267 13.8127 42.4422C14.9551 42.8922 16.1322 43.273 17.3784 43.5153L17.4477 43.2038C16.236 42.9268 15.059 42.5806 13.9166 42.1306Z" fill="url(#paint3_linear)"/>
<path d="M41.9228 13.4666C42.4767 14.7474 42.8921 16.1322 43.2037 17.5169C43.3421 18.1054 43.4114 18.6939 43.4806 19.2825L43.7922 19.2478C43.7229 18.6247 43.6191 18.0362 43.4806 17.4477C43.1691 16.0283 42.7536 14.6436 42.1651 13.3281C42.0613 13.0858 41.9574 12.8434 41.8189 12.6011L41.542 12.7396C41.7151 12.9819 41.8189 13.2242 41.9228 13.4666Z" fill="url(#paint4_linear)"/>
<path d="M30.0487 1.86939C31.0526 2.25019 31.9873 2.73485 32.8874 3.25412L33.0605 2.97717C32.1258 2.42328 31.1564 1.97324 30.1525 1.55782C29.0101 1.10778 27.8331 0.726978 26.5868 0.48465L26.5176 0.796215C27.7638 1.07316 28.9409 1.41935 30.0487 1.86939Z" fill="url(#paint5_linear)"/>
<path d="M0.484658 24.6829C0.380803 23.7829 0.311566 22.8828 0.311566 21.9827C0.311566 20.5287 0.450039 19.1094 0.726987 17.7593C1.00393 16.4438 1.38474 15.1629 1.86939 13.9512C2.38867 12.6357 3.04642 11.3549 3.84264 10.1778L3.87726 10.1432L3.60031 9.97012L3.5657 10.0047C2.76947 11.1818 2.11172 12.4626 1.55783 13.8128C1.07317 15.059 0.692368 16.3399 0.415421 17.69C0.138474 19.0748 0 20.5287 0 21.9827C0 22.9174 0.0692368 23.8175 0.173092 24.7176L0.484658 24.6829Z" fill="url(#paint6_linear)"/>
<path d="M11.0779 40.7113C10.7664 40.5382 10.4548 40.3305 10.1432 40.1227C8.89698 39.2919 7.71995 38.3572 6.64678 37.284C5.64284 36.2801 4.74277 35.1723 3.94654 33.9953C3.35803 33.0952 2.83875 32.1605 2.3541 31.1912L2.07715 31.3297C2.52719 32.3336 3.08108 33.2683 3.6696 34.1684C4.46582 35.38 5.40052 36.4878 6.40445 37.4917C7.47762 38.5649 8.65465 39.5342 9.93553 40.3651C10.2471 40.5728 10.5587 40.7459 10.8702 40.9536L11.0779 40.7113Z" fill="url(#paint7_linear)"/>
<path d="M35.5185 38.9111C35.0339 39.2919 34.5492 39.6727 34.0299 40.0189C32.9221 40.7459 31.7451 41.4036 30.5335 41.9229C29.2526 42.4768 27.8678 42.8922 26.4831 43.2038C25.0291 43.5154 23.5405 43.6538 22.0173 43.6538C20.5634 43.6538 19.144 43.5154 17.7939 43.2384C17.69 43.2038 17.5862 43.2038 17.4823 43.1692L17.4131 43.4807C17.5169 43.5153 17.6208 43.5154 17.7247 43.55C19.1094 43.8269 20.5634 43.9654 22.0173 43.9654C23.5752 43.9654 25.0984 43.7923 26.5523 43.4807C27.9717 43.1692 29.3564 42.7537 30.6719 42.1652C31.9182 41.646 33.0952 40.9882 34.2376 40.2266C34.7569 39.8804 35.2762 39.4996 35.7608 39.1188L35.5185 38.9111Z" fill="url(#paint8_linear)"/>
<path d="M43.8272 19.2478L43.5156 19.2825C43.6195 20.1825 43.6887 21.048 43.6887 21.9827C43.6887 23.4367 43.5503 24.856 43.2733 26.2061C42.9964 27.5216 42.6156 28.8025 42.1309 30.0142C41.6116 31.3297 40.9539 32.6105 40.1577 33.7876L40.123 33.8222L40.4 33.9953L40.4346 33.9607C41.2308 32.749 41.8886 31.4681 42.4425 30.118C42.9271 28.8718 43.3426 27.5909 43.5849 26.2408C43.8618 24.856 44.0003 23.402 44.0003 21.9481C44.0003 21.048 43.9311 20.1479 43.8272 19.2478Z" fill="url(#paint9_linear)"/>
<path d="M32.8877 3.25411C33.1993 3.4272 33.5108 3.63491 33.8224 3.84262C35.0687 4.67346 36.2457 5.60816 37.3189 6.68133C38.3228 7.68527 39.2229 8.79305 40.0191 9.97008C40.6076 10.8702 41.1269 11.8049 41.6115 12.7742L41.8885 12.6357C41.4384 11.6664 40.8845 10.6971 40.296 9.79699C39.4998 8.58534 38.5651 7.47756 37.5612 6.47362C36.488 5.40045 35.311 4.43113 34.0301 3.60029C33.7185 3.39258 33.407 3.21949 33.0954 3.01178L32.8877 3.25411Z" fill="url(#paint10_linear)"/>
<path d="M8.44697 5.08891C8.93163 4.7081 9.41628 4.3273 9.93556 3.98112C11.0433 3.25413 12.2204 2.59638 13.432 2.0771C14.7129 1.52321 16.0976 1.10779 17.4824 0.796224C18.9363 0.484658 20.4249 0.346184 21.9481 0.346184C23.4021 0.346184 24.8215 0.484658 26.1716 0.761605C26.2754 0.796224 26.3793 0.796224 26.4832 0.830842L26.5524 0.519276C26.4485 0.484658 26.3447 0.484658 26.2408 0.450039C24.8907 0.138474 23.4714 0 21.9828 0C20.4249 0 18.9363 0.173092 17.4478 0.484658C16.0284 0.796224 14.6437 1.21164 13.3282 1.80016C12.0819 2.31943 10.9049 2.97718 9.76247 3.73879C9.24319 4.08497 8.72392 4.46578 8.23926 4.84658L8.44697 5.08891Z" fill="url(#paint11_linear)"/>
<path d="M6.68119 6.68136C7.23508 6.12747 7.85821 5.57357 8.48134 5.08892L8.27363 4.84659C7.6505 5.36586 7.02737 5.88514 6.47348 6.47365C5.4003 7.54682 4.46561 8.68923 3.63477 9.97011L3.91171 10.1432C4.67332 8.86232 5.60801 7.71992 6.68119 6.68136Z" fill="url(#paint12_linear)"/>
<path d="M25.7563 40.5382C25.7563 40.0535 26.1718 39.6381 26.6564 39.6381C27.1411 39.6381 27.5565 40.0535 27.5565 40.5382C27.5565 41.0228 27.1411 41.4382 26.6564 41.4382C26.1718 41.4382 25.7563 41.0228 25.7563 40.5382Z" fill="#F7F8F7"/>
<path d="M16.686 3.46185C16.686 2.97719 17.1015 2.56177 17.5861 2.56177C18.0708 2.56177 18.4862 2.97719 18.4862 3.46185C18.4862 3.9465 18.0708 4.36192 17.5861 4.36192C17.0668 4.36192 16.686 3.9465 16.686 3.46185Z" fill="#F7F8F7"/>
<path d="M2.354 18.6247C2.354 18.14 2.76942 17.7246 3.25408 17.7246C3.73874 17.7246 4.15416 18.14 4.15416 18.6247C4.15416 19.1093 3.73874 19.5248 3.25408 19.5248C2.73481 19.5248 2.354 19.1093 2.354 18.6247Z" fill="#F7F8F7"/>
<path d="M7.33887 35.2069C7.33887 34.7222 7.75429 34.3068 8.23895 34.3068C8.7236 34.3068 9.13902 34.7222 9.13902 35.2069C9.13902 35.6916 8.7236 36.107 8.23895 36.107C7.71967 36.107 7.33887 35.6916 7.33887 35.2069Z" fill="#F7F8F7"/>
<path d="M39.6035 26.3792C39.6035 25.8946 40.0189 25.4792 40.5036 25.4792C40.9883 25.4792 41.4037 25.8946 41.4037 26.3792C41.4037 26.8639 40.9883 27.2793 40.5036 27.2793C39.9843 27.2793 39.6035 26.8639 39.6035 26.3792Z" fill="#F7F8F7"/>
<path d="M35.1724 9.27773C35.1724 8.79308 35.5878 8.37766 36.0724 8.37766C36.5571 8.37766 36.9725 8.79308 36.9725 9.27773C36.9725 9.76239 36.5571 10.1778 36.0724 10.1778C35.5878 10.1778 35.1724 9.76239 35.1724 9.27773Z" fill="#F7F8F7"/>
<path d="M33.8914 29.7372C34.4107 28.941 34.8261 28.1101 35.1723 27.2447C35.4839 26.4138 35.7608 25.583 35.8993 24.7522C36.0724 23.8521 36.1763 22.9174 36.1763 21.9827C36.1763 21.0134 36.0724 20.0094 35.8647 19.0747C35.6916 18.1747 35.38 17.2746 35.0338 16.4091C34.6877 15.6129 34.2722 14.8513 33.7876 14.1243C33.6837 13.9512 33.5453 13.7781 33.4414 13.605C33.4068 13.5704 33.3722 13.5012 33.3376 13.4666C33.2337 13.3627 33.1645 13.2242 33.0606 13.1204C33.026 13.0511 32.9914 13.0165 32.9221 12.9473C32.8183 12.8088 32.6798 12.6703 32.5413 12.5319L32.5067 12.4626C32.3682 12.2895 32.1951 12.1164 32.0221 11.9434C31.849 11.7703 31.6759 11.5972 31.5028 11.4241L31.4682 11.3895C31.3297 11.251 31.1566 11.1125 31.0181 11.0087C30.9489 10.974 30.9143 10.9048 30.845 10.8702C30.7065 10.7663 30.6027 10.6625 30.4642 10.5932C30.395 10.5586 30.3604 10.524 30.2911 10.4894C30.118 10.3509 29.9449 10.247 29.7719 10.1086C28.9756 9.5893 28.1448 9.17388 27.2793 8.82769C26.4485 8.51613 25.6176 8.23918 24.7868 8.10071C23.8867 7.92762 22.952 7.82376 22.0173 7.82376C21.048 7.82376 20.0441 7.92762 19.1094 8.13533C18.2093 8.30842 17.3092 8.61998 16.4438 8.96617C15.6475 9.31235 14.8859 9.72777 14.1589 10.2124C13.3973 10.7317 12.6704 11.3202 12.0126 11.978C11.3202 12.6703 10.6971 13.4666 10.1432 14.2628C9.62394 15.059 9.20852 15.8899 8.86233 16.7553C8.55077 17.5862 8.27382 18.417 8.13535 19.2478C7.96225 20.1479 7.8584 21.0826 7.8584 22.0173C7.8584 22.9866 7.96225 23.9906 8.16996 24.9253C8.34306 25.8253 8.65462 26.7254 9.00081 27.5909C9.34699 28.3871 9.76241 29.1487 10.2471 29.8757C10.3509 30.0488 10.4894 30.2219 10.5933 30.395C10.6279 30.4296 10.6625 30.4988 10.6971 30.5334C10.801 30.6373 10.8702 30.7758 10.9741 30.8796C11.0087 30.9489 11.0433 30.9835 11.1125 31.0527C11.2164 31.1912 11.3549 31.3297 11.4933 31.4681C11.6664 31.6412 11.8395 31.8489 12.0126 32.022C12.705 32.7144 13.5012 33.3375 14.2974 33.8914C15.0936 34.4107 15.9245 34.8261 16.7899 35.1723C17.6208 35.4839 18.4516 35.7608 19.2825 35.8993C20.1826 36.0724 21.1172 36.1762 22.0519 36.1762C23.0213 36.1762 24.0252 36.0724 24.9599 35.8647C25.86 35.6916 26.7601 35.38 27.6255 35.0338C28.4217 34.6876 29.1833 34.2722 29.9103 33.7876C30.6719 33.2683 31.3989 32.6798 32.0567 32.022C32.749 31.3297 33.3722 30.5681 33.8914 29.7372ZM33.5453 13.7435C33.5106 13.7089 33.5106 13.6743 33.476 13.6397C33.5106 13.6743 33.5106 13.7089 33.5453 13.7435ZM33.2683 13.3973C33.1991 13.3281 33.1298 13.2242 33.0606 13.155C33.1298 13.2242 33.1991 13.2935 33.2683 13.3973ZM32.9221 12.9127C32.8183 12.7742 32.6798 12.6357 32.5759 12.4972C32.6798 12.6357 32.7837 12.7742 32.9221 12.9127ZM31.4335 11.3895C31.2951 11.251 31.1566 11.1471 30.9835 11.0087C31.1566 11.1471 31.2951 11.2856 31.4335 11.3895ZM30.7758 10.8356C30.6719 10.7663 30.6027 10.6971 30.4988 10.6279C30.6027 10.6971 30.7065 10.7663 30.7758 10.8356ZM30.2219 10.4201C30.1873 10.3855 30.1527 10.3855 30.118 10.3509C30.1527 10.3855 30.1873 10.4201 30.2219 10.4201ZM10.4202 30.2219C10.4548 30.2565 10.4548 30.2911 10.4894 30.3257C10.4894 30.2911 10.4548 30.2565 10.4202 30.2219ZM10.6971 30.6027C10.7663 30.6719 10.8356 30.7758 10.9048 30.845C10.8356 30.7758 10.7663 30.6719 10.6971 30.6027ZM11.0779 31.0527C11.1818 31.1912 11.3202 31.3297 11.4241 31.4681C11.3202 31.3297 11.1818 31.1912 11.0779 31.0527Z" fill="url(#paint13_linear)"/>
<path d="M35.588 19.144C35.4149 18.2439 35.1034 17.3784 34.7572 16.5476C34.411 15.7514 33.9956 15.0244 33.5456 14.2974C33.0263 13.5358 32.4724 12.8434 31.8146 12.1857C31.1223 11.4933 30.3953 10.9048 29.5644 10.3855C28.8028 9.90085 28.0066 9.45081 27.1411 9.13925C26.3449 8.82768 25.5487 8.58535 24.6832 8.41226C24.4755 8.37764 24.3024 8.34303 24.0947 8.30841C24.0255 8.30841 23.9563 8.27379 23.9216 8.27379C23.7832 8.23917 23.6447 8.23917 23.4716 8.20455C23.4024 8.20455 23.3331 8.20455 23.2639 8.16993C23.0908 8.16993 22.8831 8.13531 22.71 8.13531H22.6408C22.3984 8.13531 22.1907 8.13531 21.9484 8.13531C21.7061 8.13531 21.4637 8.13532 21.2214 8.16993H21.1522C20.9445 8.16993 20.7714 8.20455 20.5637 8.20455C20.4944 8.20455 20.4252 8.20455 20.3559 8.23917C20.2175 8.27379 20.0444 8.27379 19.9059 8.30841C19.8367 8.30841 19.7674 8.34303 19.6982 8.34303C19.4905 8.37764 19.2828 8.41226 19.0751 8.44688C18.175 8.61997 17.3095 8.93154 16.4787 9.27772C15.6825 9.62391 14.9555 10.0393 14.2285 10.4894C13.4669 11.0086 12.7745 11.5625 12.1168 12.2203C11.4244 12.9127 10.8359 13.6396 10.3166 14.4705C9.83195 15.2321 9.38191 16.0283 9.07034 16.8938C8.75877 17.69 8.51645 18.4862 8.34335 19.3517C8.17026 20.2171 8.06641 21.1518 8.06641 22.0519C8.06641 23.0212 8.17026 23.9905 8.37797 24.9252C8.55106 25.8253 8.82801 26.6908 9.20881 27.5216C9.555 28.3178 9.97042 29.0448 10.4205 29.7718C10.9397 30.5334 11.4936 31.2258 12.1514 31.8835C12.8437 32.5759 13.5707 33.1644 14.4016 33.6837C15.1632 34.1684 15.9594 34.6184 16.8249 34.93C17.6211 35.2415 18.4173 35.4839 19.2828 35.657C19.4905 35.6916 19.6636 35.7262 19.8713 35.7608C19.9405 35.7608 20.0098 35.7954 20.0444 35.7954C20.1828 35.83 20.3213 35.83 20.4944 35.8647C20.5637 35.8647 20.6329 35.8647 20.7021 35.8993C20.8752 35.9339 21.0829 35.9339 21.256 35.9339C21.4983 35.9339 21.7407 35.9685 22.0176 35.9685C22.9869 35.9685 23.9563 35.8647 24.891 35.657C25.791 35.4839 26.6565 35.2069 27.4873 34.8261C28.2836 34.4799 29.0105 34.0645 29.7375 33.6145C30.4991 33.0952 31.1915 32.5413 31.8493 31.8835C32.5416 31.1912 33.1301 30.4642 33.6494 29.6333C34.1341 28.8717 34.5841 28.0755 34.8957 27.2101C35.2072 26.4138 35.4496 25.6176 35.6227 24.7522C35.7958 23.8867 35.8996 22.952 35.8996 22.0519C35.8996 21.0134 35.7958 20.044 35.588 19.144ZM24.3024 8.30841C24.2678 8.30841 24.2332 8.30841 24.164 8.27379C24.1986 8.27379 24.2332 8.27379 24.3024 8.30841ZM23.8524 8.23917C23.7485 8.23917 23.6447 8.20455 23.5408 8.20455C23.6447 8.20455 23.7485 8.20455 23.8524 8.23917ZM23.2639 8.16993C23.0908 8.16993 22.9177 8.13531 22.7446 8.13531C22.9177 8.13531 23.0908 8.13532 23.2639 8.16993ZM20.3559 8.20455C20.2521 8.20455 20.1482 8.23917 20.0098 8.23917C20.1482 8.23917 20.2521 8.20455 20.3559 8.20455ZM19.6982 8.30841C19.6636 8.30841 19.629 8.30841 19.5597 8.34303C19.629 8.30841 19.6636 8.30841 19.6982 8.30841ZM19.6982 35.6916C19.7328 35.6916 19.7674 35.6916 19.8367 35.7262C19.7674 35.6916 19.7328 35.6916 19.6982 35.6916ZM20.1482 35.7608C20.2521 35.7608 20.3559 35.7954 20.4598 35.7954C20.3559 35.7954 20.2521 35.7608 20.1482 35.7608ZM20.7021 35.83C20.8752 35.83 21.0483 35.8647 21.2214 35.8647C21.0483 35.8647 20.8752 35.83 20.7021 35.83Z" fill="#971E36"/>
<defs>
<linearGradient id="paint0_linear" x1="33.1373" y1="33.1385" x2="10.9093" y2="10.9105" gradientUnits="userSpaceOnUse">
<stop stop-color="#B30047"/>
<stop offset="0.3053" stop-color="#A5023E"/>
<stop offset="0.8759" stop-color="#820826"/>
<stop offset="1" stop-color="#790920"/>
</linearGradient>
<linearGradient id="paint1_linear" x1="0.23824" y1="28.3131" x2="1.53334" y2="27.9294" gradientUnits="userSpaceOnUse">
<stop stop-color="#908D8D"/>
<stop offset="0.082379" stop-color="#9D9B9B"/>
<stop offset="0.3703" stop-color="#C7C6C6"/>
<stop offset="0.6293" stop-color="#E6E5E5"/>
<stop offset="0.8481" stop-color="#F8F8F8"/>
<stop offset="1" stop-color="white"/>
</linearGradient>
<linearGradient id="paint2_linear" x1="39.2253" y1="37.773" x2="37.3608" y2="35.9085" gradientUnits="userSpaceOnUse">
<stop stop-color="#908D8D"/>
<stop offset="0.082379" stop-color="#9D9B9B"/>
<stop offset="0.3703" stop-color="#C7C6C6"/>
<stop offset="0.6293" stop-color="#E6E5E5"/>
<stop offset="0.8481" stop-color="#F8F8F8"/>
<stop offset="1" stop-color="white"/>
</linearGradient>
<linearGradient id="paint3_linear" x1="13.8524" y1="42.9978" x2="14.3477" y2="41.7151" gradientUnits="userSpaceOnUse">
<stop stop-color="#908D8D"/>
<stop offset="0.082379" stop-color="#9D9B9B"/>
<stop offset="0.3703" stop-color="#C7C6C6"/>
<stop offset="0.6293" stop-color="#E6E5E5"/>
<stop offset="0.8481" stop-color="#F8F8F8"/>
<stop offset="1" stop-color="white"/>
</linearGradient>
<linearGradient id="paint4_linear" x1="44.2297" y1="15.6176" x2="41.8894" y2="16.1577" gradientUnits="userSpaceOnUse">
<stop stop-color="#908D8D"/>
<stop offset="0.082379" stop-color="#9D9B9B"/>
<stop offset="0.3703" stop-color="#C7C6C6"/>
<stop offset="0.6293" stop-color="#E6E5E5"/>
<stop offset="0.8481" stop-color="#F8F8F8"/>
<stop offset="1" stop-color="white"/>
</linearGradient>
<linearGradient id="paint5_linear" x1="30.5426" y1="0.0391376" x2="29.6318" y2="2.24412" gradientUnits="userSpaceOnUse">
<stop stop-color="#908D8D"/>
<stop offset="0.082379" stop-color="#9D9B9B"/>
<stop offset="0.3703" stop-color="#C7C6C6"/>
<stop offset="0.6293" stop-color="#E6E5E5"/>
<stop offset="0.8481" stop-color="#F8F8F8"/>
<stop offset="1" stop-color="white"/>
</linearGradient>
<linearGradient id="paint6_linear" x1="0.125731" y1="16.7218" x2="-2.08783" y2="15.955" gradientUnits="userSpaceOnUse">
<stop stop-color="#B2004D"/>
<stop offset="0.5019" stop-color="#B0004C"/>
<stop offset="0.6837" stop-color="#A90146"/>
<stop offset="0.8135" stop-color="#9D033D"/>
<stop offset="0.9178" stop-color="#8D0630"/>
<stop offset="1" stop-color="#790920"/>
</linearGradient>
<linearGradient id="paint7_linear" x1="6.62248" y1="36.0735" x2="4.94356" y2="37.671" gradientUnits="userSpaceOnUse">
<stop stop-color="#A80042"/>
<stop offset="0.2815" stop-color="#A0013C"/>
<stop offset="0.7104" stop-color="#8B062D"/>
<stop offset="1" stop-color="#790920"/>
</linearGradient>
<linearGradient id="paint8_linear" x1="26.2734" y1="40.245" x2="27.3614" y2="44.5327" gradientUnits="userSpaceOnUse">
<stop stop-color="#7C0024"/>
<stop offset="0.2118" stop-color="#71021F"/>
<stop offset="0.5479" stop-color="#68041A"/>
<stop offset="1" stop-color="#650519"/>
</linearGradient>
<linearGradient id="paint9_linear" x1="39.1479" y1="22.2624" x2="42.6688" y2="27.6398" gradientUnits="userSpaceOnUse">
<stop stop-color="#AB1D4B"/>
<stop offset="0.5169" stop-color="#A91C49"/>
<stop offset="0.7031" stop-color="#A21A44"/>
<stop offset="0.8359" stop-color="#971539"/>
<stop offset="0.9424" stop-color="#860E2B"/>
<stop offset="1" stop-color="#790920"/>
</linearGradient>
<linearGradient id="paint10_linear" x1="36.3387" y1="8.45568" x2="38.8998" y2="6.98315" gradientUnits="userSpaceOnUse">
<stop stop-color="#B2004D"/>
<stop offset="0.5019" stop-color="#B0004C"/>
<stop offset="0.6837" stop-color="#A90146"/>
<stop offset="0.8135" stop-color="#9D033D"/>
<stop offset="0.9178" stop-color="#8D0630"/>
<stop offset="1" stop-color="#790920"/>
</linearGradient>
<linearGradient id="paint11_linear" x1="16.7396" y1="0.187531" x2="16.3064" y2="-1.34849" gradientUnits="userSpaceOnUse">
<stop stop-color="#B2004D"/>
<stop offset="0.5019" stop-color="#B0004C"/>
<stop offset="0.6837" stop-color="#A90146"/>
<stop offset="0.8135" stop-color="#9D033D"/>
<stop offset="0.9178" stop-color="#8D0630"/>
<stop offset="1" stop-color="#790920"/>
</linearGradient>
<linearGradient id="paint12_linear" x1="4.20901" y1="5.78834" x2="6.36268" y2="7.78328" gradientUnits="userSpaceOnUse">
<stop stop-color="#908D8D"/>
<stop offset="0.082379" stop-color="#9D9B9B"/>
<stop offset="0.3703" stop-color="#C7C6C6"/>
<stop offset="0.6293" stop-color="#E6E5E5"/>
<stop offset="0.8481" stop-color="#F8F8F8"/>
<stop offset="1" stop-color="white"/>
</linearGradient>
<linearGradient id="paint13_linear" x1="11.9124" y1="11.9146" x2="31.9902" y2="31.9925" gradientUnits="userSpaceOnUse">
<stop stop-color="#B30047"/>
<stop offset="0.3053" stop-color="#A5023E"/>
<stop offset="0.8759" stop-color="#820826"/>
<stop offset="1" stop-color="#790920"/>
</linearGradient>
</defs>
</svg>
