<svg width="44" height="44" viewBox="0 0 44 44" fill="none" xmlns="http://www.w3.org/2000/svg">
<path d="M38.4611 18.5354C38.2188 17.4268 37.9072 16.3874 37.4572 15.3827C37.0418 14.4126 36.5571 13.5118 35.9686 12.6457C35.3455 11.7102 34.6531 10.8787 33.8569 10.0819C33.026 9.2504 32.1259 8.52284 31.1566 7.89922C30.2219 7.31024 29.2526 6.79056 28.2141 6.37481C27.2794 5.99371 26.2754 5.68189 25.2369 5.47402C24.9946 5.43937 24.7522 5.37008 24.5099 5.33544C24.4407 5.33544 24.3714 5.30079 24.3022 5.30079C24.1291 5.26615 23.956 5.26615 23.7829 5.2315C23.7137 5.2315 23.6098 5.19685 23.5406 5.19685C23.3329 5.16221 23.0905 5.16221 22.8828 5.16221H22.8136C22.5366 5.16221 22.2597 5.12756 21.9828 5.12756C21.7058 5.12756 21.3942 5.12756 21.1173 5.16221H21.0481C20.8057 5.16221 20.5634 5.19685 20.3211 5.2315C20.2518 5.2315 20.148 5.26615 20.0787 5.26615C19.9056 5.30079 19.6979 5.30079 19.5248 5.33544C19.4556 5.33544 19.3518 5.37008 19.2825 5.37008C19.0402 5.40473 18.7632 5.47402 18.5209 5.50867C17.4131 5.75119 16.3746 6.063 15.3706 6.51339C14.4013 6.92914 13.5012 7.41418 12.6358 8.00315C11.7011 8.62678 10.8702 9.31969 10.074 10.1165C9.24318 10.948 8.51619 11.8488 7.89306 12.8189C7.30454 13.7543 6.78527 14.7244 6.36985 15.7638C5.98905 16.6992 5.67748 17.7039 5.46977 18.7433C5.26206 19.8173 5.1582 20.8913 5.1582 22.0347C5.1582 23.2126 5.29668 24.3906 5.50439 25.4992C5.74672 26.6079 6.05828 27.6472 6.50832 28.652C6.92374 29.6221 7.4084 30.5228 7.99691 31.389C8.62004 32.3244 9.31241 33.1559 10.1086 33.9528C10.9395 34.7843 11.8396 35.5118 12.8089 36.1354C13.7436 36.7244 14.7129 37.2441 15.7514 37.6598C16.6861 38.0409 17.6901 38.3528 18.7286 38.5606C18.9709 38.5953 19.2133 38.6646 19.4556 38.6992C19.5248 38.6992 19.5941 38.7339 19.6633 38.7339C19.8364 38.7685 20.0095 38.7685 20.1826 38.8032C20.2518 38.8032 20.3557 38.8378 20.4249 38.8378C20.6326 38.8724 20.875 38.8724 21.0827 38.8724C21.3942 38.8724 21.6712 38.9071 21.9828 38.9071C23.1598 38.9071 24.3368 38.7685 25.4446 38.5606C26.5524 38.3181 27.5909 38.0063 28.5949 37.5559C29.5642 37.1402 30.4643 36.6551 31.3297 36.0661C32.2644 35.4425 33.0953 34.7496 33.8915 33.9528C34.7223 33.1213 35.4493 32.2205 36.0724 31.2504C36.661 30.315 37.1802 29.3449 37.5957 28.3055C37.9765 27.3701 38.288 26.3654 38.4957 25.326C38.7034 24.252 38.8073 23.178 38.8073 22.0347C38.8073 20.8221 38.7034 19.6441 38.4611 18.5354ZM24.7868 5.40473C24.7522 5.40473 24.683 5.37008 24.6484 5.37008C24.683 5.40473 24.7176 5.40473 24.7868 5.40473ZM24.2329 5.33544C24.0945 5.33544 23.9906 5.30079 23.8521 5.30079C23.9906 5.30079 24.0945 5.30079 24.2329 5.33544ZM23.5406 5.2315C23.3329 5.19685 23.1252 5.19685 22.9174 5.19685C23.1252 5.19685 23.3329 5.2315 23.5406 5.2315ZM21.0481 5.19685C20.8057 5.19685 20.598 5.2315 20.3557 5.26615C20.598 5.2315 20.8057 5.2315 21.0481 5.19685ZM20.0095 5.30079C19.871 5.30079 19.7326 5.33544 19.5941 5.37008C19.7672 5.33544 19.9056 5.30079 20.0095 5.30079ZM19.2133 5.40473C19.1787 5.40473 19.1094 5.43937 19.0748 5.43937C19.1094 5.43937 19.1787 5.40473 19.2133 5.40473ZM19.2133 38.5953C19.2479 38.5953 19.3171 38.6299 19.3518 38.6299C19.3171 38.6299 19.2479 38.6299 19.2133 38.5953ZM19.7326 38.6992C19.871 38.6992 19.9749 38.7339 20.1134 38.7339C20.0095 38.7339 19.871 38.6992 19.7326 38.6992ZM20.4249 38.7685C20.6326 38.8032 20.8403 38.8032 21.0481 38.8032C20.875 38.8032 20.6673 38.8032 20.4249 38.7685Z" fill="#0099C3"/>
<path d="M5.64256 28.9984C5.19252 27.9244 4.84634 26.8157 4.60401 25.6724C4.50015 25.1874 4.43092 24.7024 4.36168 24.2173L0.172852 24.737C0.242088 25.3606 0.345944 25.9496 0.484417 26.5386C0.795983 27.959 1.2114 29.3449 1.79992 30.6614C1.90377 30.9039 2.00763 31.1464 2.1461 31.389L5.95413 29.5874C5.81565 29.3795 5.74642 29.2063 5.64256 28.9984Z" fill="#FBF5F9"/>
<path d="M40.3997 34.0913L36.8687 31.7701C36.2109 32.7748 35.4147 33.7449 34.5839 34.611C34.1338 35.0614 33.6145 35.5118 33.1299 35.9275L35.7609 39.2189C36.384 38.6992 37.0071 38.1795 37.561 37.5905C38.5996 36.5165 39.5689 35.3386 40.3997 34.0913Z" fill="#FBF5F9"/>
<path d="M15.3706 38.526C14.5744 38.2142 13.7782 37.8331 13.0512 37.3827L10.9395 41.0205C11.8742 41.5748 12.8435 42.0252 13.8474 42.4409C14.9898 42.8913 16.1668 43.2724 17.4131 43.5149L18.3132 39.3921C17.2746 39.1842 16.3053 38.8724 15.3706 38.526Z" fill="#FBF5F9"/>
<path d="M38.3228 15.0016C38.7728 16.0756 39.119 17.1843 39.3613 18.3276C39.4652 18.8126 39.5344 19.2976 39.6037 19.7827L43.7925 19.263C43.7233 18.6394 43.6194 18.0504 43.4809 17.4614C43.1694 16.0409 42.754 14.6551 42.1654 13.3386C42.0616 13.0961 41.9577 12.8535 41.8193 12.611L38.0112 14.4126C38.1497 14.6205 38.2536 14.8283 38.3228 15.0016Z" fill="#FBF5F9"/>
<path d="M28.5949 5.50826C29.3911 5.82007 30.1874 6.20118 30.9143 6.65157L33.0261 3.01378C32.0914 2.45944 31.1221 2.00905 30.1181 1.5933C28.9757 1.14291 27.7987 0.761807 26.5524 0.519287L25.6523 4.64212C26.7255 4.85 27.6948 5.12716 28.5949 5.50826Z" fill="#FBF5F9"/>
<path d="M43.8269 19.263L39.6381 19.7827C39.5688 19.2976 39.4996 18.8126 39.3958 18.3276C39.1534 17.1843 38.8072 16.0409 38.3572 15.0016C38.288 14.7937 38.1841 14.6205 38.0802 14.4126L41.8883 12.611C41.4382 11.6409 40.8843 10.6709 40.2958 9.77008C39.4996 8.55748 38.5649 7.44882 37.561 6.44409C36.4878 5.37008 35.3108 4.4 34.0299 3.5685C33.7183 3.36063 33.4068 3.1874 33.0952 2.97953L30.9835 6.61732C30.2219 6.16693 29.4603 5.78583 28.6294 5.47402C27.6947 5.09291 26.76 4.81575 25.7561 4.60787L26.6562 0.485039C26.5523 0.450394 26.4485 0.450394 26.3446 0.415748C24.8906 0.138583 23.4713 0 21.9827 0C20.4249 0 18.9363 0.173228 17.4477 0.485039C16.0283 0.79685 14.6436 1.2126 13.3281 1.80157C12.0818 2.32126 10.9048 2.97953 9.76239 3.74173C9.24312 4.08819 8.72384 4.46929 8.23918 4.85039L10.8702 8.14173C10.3509 8.55748 9.86625 8.97323 9.41621 9.45827C8.55075 10.3244 7.75452 11.2945 7.09677 12.3339L7.13139 12.2992L3.60031 9.97795L3.5657 10.0126C2.76947 11.1906 2.11172 12.4724 1.55783 13.8236C1.07317 15.0709 0.692368 16.3528 0.415421 17.7039C0.138474 19.0898 0 20.5449 0 22C0 22.9354 0.0692368 23.8362 0.173092 24.737L4.36192 24.2173C4.43116 24.7024 4.50039 25.1874 4.60425 25.6724C4.84658 26.8157 5.19276 27.9591 5.6428 28.9984C5.71204 29.2063 5.81589 29.3795 5.91975 29.5874L2.11172 31.389C2.56176 32.3591 3.11566 33.3291 3.70417 34.2299C4.50039 35.4425 5.43509 36.5512 6.43902 37.5559C7.5122 38.6299 8.68922 39.6 9.9701 40.4315C10.2817 40.6394 10.5932 40.8126 10.9048 41.0205L13.0165 37.3827C13.7781 37.8331 14.5397 38.2142 15.3706 38.526C16.3745 38.9417 17.4131 39.2535 18.5208 39.4614C18.417 39.4268 18.3478 39.4268 18.2439 39.3921L17.3438 43.515C17.4477 43.5496 17.5515 43.5496 17.6554 43.5843C19.0401 43.8614 20.4941 44 21.9481 44C23.5059 44 25.0291 43.8268 26.4831 43.515C27.9024 43.2032 29.2872 42.7874 30.6027 42.1984C31.8489 41.6787 33.026 41.0205 34.1684 40.2583C34.6876 39.9118 35.2069 39.5307 35.6916 39.1496L33.0606 35.8583C33.5799 35.4425 34.0645 35.0268 34.5146 34.5417C35.38 33.6756 36.1416 32.7402 36.7994 31.7008L40.3304 34.022L40.3651 33.9874C41.1613 32.7748 41.819 31.4929 42.3729 30.1417C42.8576 28.8945 43.273 27.6126 43.5153 26.2614C43.7923 24.8756 43.9308 23.4205 43.9308 21.9654C44 21.0646 43.9308 20.1638 43.8269 19.263ZM37.8379 13.9276C37.8033 13.8583 37.7687 13.789 37.7341 13.7543C37.7687 13.8236 37.8033 13.8929 37.8379 13.9276ZM37.1456 12.7496C37.0071 12.5417 36.9032 12.3339 36.7648 12.126C36.9032 12.3339 37.0417 12.5417 37.1456 12.7496ZM37.5264 13.3386C37.4571 13.2346 37.4225 13.1307 37.3533 13.0268C37.3879 13.1654 37.4571 13.2346 37.5264 13.3386ZM12.1164 7.2063C11.9087 7.34488 11.701 7.48347 11.4933 7.65669C11.701 7.51811 11.9087 7.37953 12.1164 7.2063ZM4.29268 23.6283V23.6976V23.6283ZM4.22345 22.5197C4.22345 22.5543 4.22345 22.589 4.22345 22.6583C4.22345 22.6236 4.22345 22.589 4.22345 22.5197ZM4.25806 23.074C4.25806 23.1087 4.25806 23.1433 4.25806 23.2126C4.25806 23.1433 4.25806 23.1087 4.25806 23.074ZM6.16208 30.0724C6.1967 30.1417 6.23131 30.211 6.26593 30.2457C6.23131 30.211 6.1967 30.1417 6.16208 30.0724ZM6.81983 31.2504C6.9583 31.4583 7.06216 31.6661 7.20063 31.874C7.09677 31.6661 6.9583 31.4583 6.81983 31.2504ZM6.47364 30.6614C6.54288 30.7654 6.5775 30.8693 6.64674 30.9732C6.5775 30.8693 6.54288 30.7654 6.47364 30.6614ZM31.8489 36.7937C32.0566 36.6551 32.2644 36.5165 32.4721 36.3433C32.299 36.5165 32.0566 36.6551 31.8489 36.7937ZM34.93 30.4535C34.3415 31.3543 33.6837 32.1858 32.9221 32.948C32.1951 33.6756 31.4335 34.2992 30.5681 34.8882C29.7718 35.4079 28.941 35.8583 28.0755 36.2394C27.1408 36.6205 26.1715 36.9323 25.1676 37.1402C24.129 37.348 23.0905 37.4866 21.9827 37.4866C20.9441 37.4866 19.9402 37.3827 18.9709 37.1748C18.0362 37.0016 17.1361 36.7244 16.236 36.378C15.3013 35.9969 14.4013 35.5118 13.5358 34.9575C12.6357 34.3685 11.8049 33.7102 11.0433 32.948C10.3163 32.2205 9.69315 31.4583 9.10464 30.5921C8.58537 29.7953 8.13533 28.9638 7.75452 28.0976C7.37372 27.1622 7.06216 26.1921 6.85444 25.1874C6.64673 24.148 6.50826 23.1087 6.50826 22C6.50826 20.9606 6.61212 19.9559 6.81983 18.9858C6.99292 18.0504 7.26987 17.1496 7.61605 16.2488C7.99685 15.3134 8.48151 14.4126 9.03541 13.5465C9.62392 12.6457 10.2817 11.8142 11.0433 11.052C11.7703 10.3244 12.5319 9.70079 13.3973 9.11181C14.1935 8.59213 15.0244 8.14173 15.8899 7.76063C16.8245 7.37953 17.7939 7.06772 18.7978 6.85984C19.8363 6.65197 20.8749 6.51339 21.9827 6.51339C23.0212 6.51339 24.0252 6.61732 24.9945 6.8252C25.9292 6.99843 26.8293 7.27559 27.7293 7.62205C28.664 8.00315 29.5641 8.48819 30.4296 9.04252C31.3297 9.6315 32.1605 10.2898 32.9221 11.052C33.6491 11.7795 34.2722 12.5417 34.8607 13.4079C35.38 14.2047 35.8301 15.0362 36.2109 15.9024C36.5917 16.8378 36.9032 17.8079 37.1109 18.8126C37.3186 19.852 37.4571 20.8913 37.4571 22C37.4571 23.0394 37.3533 24.0441 37.1456 25.0142C36.9725 25.9496 36.6955 26.8504 36.3493 27.7512C35.9339 28.6866 35.4839 29.5874 34.93 30.4535ZM39.6727 20.3024V20.3717V20.3024ZM39.7073 20.822C39.7073 20.8567 39.7073 20.8913 39.7073 20.926C39.7073 20.8913 39.7073 20.8567 39.7073 20.822ZM39.7419 21.3417C39.7419 21.3764 39.7419 21.411 39.7419 21.4803C39.7419 21.4457 39.7419 21.411 39.7419 21.3417Z" fill="#00B9ED"/>
<path d="M9.41648 9.42361C9.86652 8.97321 10.3858 8.52282 10.8705 8.10707L8.23945 4.81573C7.61632 5.33542 6.99319 5.8551 6.4393 6.44408C5.36613 7.5181 4.43143 8.69605 3.60059 9.94329L7.13166 12.2646C7.78941 11.2252 8.58564 10.2897 9.41648 9.42361Z" fill="#FBF5F9"/>
<path d="M35.8993 19.0898C35.6916 18.1543 35.4147 17.2882 35.0685 16.4221C34.7223 15.6252 34.3069 14.863 33.8222 14.1354C33.3029 13.3732 32.7144 12.6457 32.0567 11.9874C31.3643 11.2945 30.6027 10.6709 29.7719 10.1512C29.0102 9.6315 28.1794 9.21575 27.3139 8.8693C26.5177 8.55748 25.6869 8.28032 24.8214 8.10709C23.9213 7.93386 22.9866 7.82993 22.0519 7.82993C21.048 7.82993 20.0787 7.93386 19.1094 8.14174C18.1747 8.34961 17.3092 8.62678 16.4438 8.97323C15.6475 9.31969 14.8859 9.73544 14.1589 10.2205C13.3973 10.7402 12.6704 11.3291 12.0126 11.9874C11.3202 12.6803 10.6971 13.4425 10.1778 14.274C9.65856 15.0362 9.24313 15.8677 8.89695 16.7339C8.58539 17.5307 8.30844 18.3622 8.13535 19.2284C7.96225 20.1291 7.8584 21.0646 7.8584 22C7.8584 23.0047 7.96225 23.9748 8.16996 24.9449C8.37767 25.8803 8.65462 26.7465 9.00081 27.6126C9.34699 28.4095 9.76241 29.1717 10.2471 29.8992C10.7663 30.6614 11.3549 31.389 12.0126 32.0472C12.705 32.7402 13.4666 33.3638 14.2974 33.8835C15.059 34.4032 15.8899 34.8189 16.7553 35.1654C17.5516 35.4772 18.3824 35.7543 19.2479 35.9276C19.9402 36.0661 20.6326 36.1354 21.325 36.1701C20.6326 36.1354 19.9402 36.0661 19.2825 35.9276C18.417 35.7543 17.5862 35.5118 16.8246 35.2C15.9591 34.8535 15.1629 34.4378 14.3667 33.9181C13.5358 33.3984 12.8088 32.7748 12.1165 32.0819C11.4587 31.4236 10.8702 30.7307 10.3855 29.9339C9.90088 29.2063 9.48546 28.4787 9.13928 27.6819C8.7931 26.8504 8.51615 25.9496 8.30844 25.0488C8.06611 24.148 7.96225 23.178 7.96225 22.1732C7.96225 21.2378 8.06611 20.3024 8.2392 19.4362C8.41229 18.5701 8.65462 17.7386 8.96619 16.9764C9.31237 16.1102 9.72779 15.3134 10.2471 14.5165C10.7663 13.685 11.3895 12.9575 12.0818 12.2646C12.7396 11.6063 13.432 11.0173 14.2282 10.5323C14.9552 10.0472 15.6822 9.6315 16.4784 9.28504C17.3092 8.93859 18.2093 8.66142 19.1094 8.45355C20.0441 8.24567 21.0134 8.14174 22.0173 8.14174C22.952 8.14174 23.8867 8.24567 24.7522 8.4189C25.6176 8.59213 26.4485 8.83465 27.2101 9.14646C28.0756 9.49292 28.8718 9.90867 29.668 10.4284C30.4988 10.948 31.2258 11.5717 31.9182 12.2646C32.5759 12.9228 33.1645 13.6158 33.6491 14.4126C34.1338 15.1402 34.5492 15.8677 34.8954 16.6646C35.2416 17.4961 35.5185 18.3969 35.7262 19.2976C35.9339 20.2331 36.0378 21.2032 36.0378 22.2079C36.0378 23.1433 35.9339 24.0787 35.7608 24.9449C35.5877 25.811 35.3454 26.6425 35.0338 27.4047C34.6877 28.2709 34.2722 29.0677 33.753 29.8646C33.2337 30.6961 32.6106 31.4236 31.9182 32.1165C31.2604 32.7748 30.5681 33.3638 29.7719 33.8488C29.0449 34.3339 28.3179 34.7496 27.5217 35.0961C26.6908 35.4425 25.7907 35.7197 24.8907 35.9276C23.956 36.1354 22.9866 36.2394 21.9827 36.2394C22.9866 36.2394 23.956 36.1354 24.9253 35.9276C25.86 35.7197 26.7254 35.4425 27.5909 35.0961C28.3871 34.7496 29.1487 34.3339 29.8757 33.8488C30.6373 33.3291 31.3643 32.7402 32.0221 32.0819C32.7144 31.389 33.3376 30.6268 33.8568 29.7953C34.3761 29.0331 34.7915 28.2016 35.1377 27.3354C35.4493 26.5386 35.7262 25.7071 35.8993 24.8409C36.0724 23.9402 36.1763 23.0047 36.1763 22.0693C36.1763 20.9953 36.0724 20.0252 35.8993 19.0898Z" fill="#FF79AE"/>
<path d="M8.82739 13.4079C8.27349 14.274 7.78883 15.2095 7.40803 16.1449C7.06185 17.0457 6.7849 17.9811 6.57719 18.9166C6.36948 19.9213 6.26562 20.9606 6.26562 22C6.26562 23.074 6.36948 24.1827 6.61181 25.2567C6.81952 26.2614 7.13108 27.2315 7.54651 28.2016C7.92731 29.0677 8.37735 29.9339 8.93124 30.7307C9.48514 31.5622 10.1429 32.3937 10.9045 33.1213C11.7007 33.9181 12.5316 34.5764 13.4316 35.1654C14.2971 35.7197 15.2318 36.2047 16.1665 36.5858C17.0666 36.9323 18.0013 37.2095 18.936 37.4173C19.9399 37.6252 20.9785 37.7292 22.017 37.7292C23.0902 37.7292 24.198 37.6252 25.2711 37.3827C26.2751 37.1748 27.2444 36.863 28.2137 36.4473C29.0792 36.0662 29.9446 35.6158 30.7408 35.0614C31.5717 34.5071 32.3679 33.8488 33.1295 33.0866C33.9257 32.2898 34.5835 31.4583 35.172 30.5575C35.7259 29.6914 36.2106 28.7559 36.5914 27.8205C36.9375 26.9197 37.2145 25.9843 37.4222 25.0488C37.6299 24.0441 37.7338 23.0047 37.7338 21.9654C37.7338 20.8914 37.6299 19.7827 37.3876 18.7087C37.1799 17.704 36.8683 16.7339 36.4529 15.7638C36.0721 14.8977 35.622 14.0315 35.0681 13.2347C34.5143 12.4032 33.8565 11.6063 33.0949 10.8441C32.2987 10.0473 31.4678 9.38899 30.5678 8.80002C29.7023 8.24569 28.7676 7.76065 27.8329 7.37954C26.9328 7.03309 25.9981 6.75592 25.0634 6.54805C24.0595 6.34017 23.0209 6.23624 21.9824 6.23624C20.9092 6.23624 19.8014 6.34017 18.7283 6.58269C17.7243 6.79057 16.755 7.10238 15.7857 7.51813C14.9202 7.89923 14.0548 8.34962 13.2585 8.90395C12.4277 9.45828 11.6315 10.1166 10.8699 10.8788C10.1083 11.6756 9.4159 12.5071 8.82739 13.4079ZM16.305 8.73073C17.1704 8.34962 18.1051 8.07246 19.0052 7.86458C19.9745 7.65671 20.9785 7.55277 21.9824 7.55277C22.9171 7.55277 23.8864 7.65671 24.8211 7.82994C25.6866 8.00317 26.552 8.24569 27.3829 8.59214C28.2483 8.9386 29.1138 9.38899 29.91 9.90868C30.7408 10.463 31.5024 11.0866 32.2294 11.7795C32.9218 12.4725 33.5103 13.2 34.0296 13.9622C34.5143 14.7244 34.9643 15.4866 35.2759 16.3181C35.6567 17.1843 35.9336 18.1197 36.1413 19.0205C36.349 19.9906 36.4529 20.9953 36.4529 22C36.4529 22.9354 36.349 23.9055 36.1759 24.841C36.0028 25.7071 35.7605 26.5732 35.4143 27.4047C35.0681 28.2709 34.6181 29.137 34.0988 29.9339C33.5449 30.7307 32.9218 31.5276 32.1948 32.2205C31.5024 32.9134 30.7755 33.5024 30.0139 34.0221C29.2523 34.5071 28.4906 34.9575 27.6598 35.2693C26.7943 35.6504 25.8596 35.9276 24.9596 36.1355C23.9903 36.3433 22.9863 36.4473 21.9824 36.4473C21.0477 36.4473 20.0784 36.3433 19.1437 36.1701C18.2782 35.9969 17.4128 35.7543 16.5819 35.4079C15.7165 35.0614 14.851 34.611 14.0548 34.0914C13.2239 33.537 12.4623 32.9134 11.7353 32.2205C11.043 31.5276 10.4545 30.8 9.93518 30.0378C9.45052 29.2756 9.00048 28.5134 8.68891 27.6819C8.30811 26.8158 8.03116 25.8803 7.82345 24.9795C7.61574 24.0095 7.51189 23.0047 7.51189 22C7.51189 21.0646 7.61574 20.0945 7.78884 19.1591C7.96193 18.2929 8.20426 17.4268 8.55044 16.5953C8.89662 15.7292 9.34666 14.863 9.86594 14.0662C10.4198 13.2347 11.043 12.4725 11.7353 11.7449C12.4277 11.052 13.1547 10.463 13.9163 9.94332C14.7125 9.49293 15.5087 9.07718 16.305 8.73073Z" fill="url(#paint0_linear)"/>
<path d="M33.7875 14.1354L34.8261 13.4425C34.2722 12.611 33.6144 11.8142 32.8874 11.0866L32.022 11.9528C32.6797 12.611 33.2682 13.3386 33.7875 14.1354Z" fill="#0099C3"/>
<path d="M35.0339 16.4221L36.1763 15.937C35.7955 15.0709 35.3454 14.2394 34.8262 13.4425L33.7876 14.1354C34.2723 14.8284 34.6877 15.6252 35.0339 16.4221Z" fill="#EBDFE2"/>
<path d="M35.8992 19.0898L37.1108 18.8472C36.9031 17.8425 36.5916 16.8724 36.2108 15.937L35.0684 16.4221C35.4145 17.2535 35.6915 18.1543 35.8992 19.0898Z" fill="#0099C3"/>
<path d="M32.022 32.0472L32.8874 32.9134C33.649 32.1512 34.3068 31.3197 34.8953 30.4189L33.8567 29.726C33.3375 30.5921 32.7143 31.3543 32.022 32.0472Z" fill="#EBDFE2"/>
<path d="M8.82779 16.7339L7.68538 16.2835C7.3392 17.1496 7.06225 18.0504 6.88916 19.0205L8.1008 19.263C8.23928 18.3622 8.48161 17.5307 8.82779 16.7339Z" fill="#EBDFE2"/>
<path d="M8.1008 24.9449L6.88916 25.1874C7.09687 26.1921 7.40844 27.1622 7.78924 28.0976L8.93165 27.6126C8.58546 26.7465 8.30852 25.8457 8.1008 24.9449Z" fill="#0099C3"/>
<path d="M8.06618 19.2284L6.85453 18.9858C6.64682 19.9559 6.54297 20.9606 6.54297 22H7.78923C7.78923 21.0646 7.89309 20.1291 8.06618 19.2284Z" fill="#0099C3"/>
<path d="M7.78923 22H6.54297C6.54297 23.1087 6.64682 24.148 6.88915 25.1874L8.1008 24.9449C7.89309 23.9748 7.78923 23.0047 7.78923 22Z" fill="#EBDFE2"/>
<path d="M8.93147 27.6126L7.78906 28.0976C8.16987 28.9638 8.6199 29.7953 9.13918 30.5921L10.1777 29.8992C9.69308 29.1716 9.27765 28.4094 8.93147 27.6126Z" fill="#EBDFE2"/>
<path d="M11.9436 32.0472L11.0781 32.948C11.8397 33.7102 12.6706 34.3685 13.5707 34.9575L14.263 33.9181C13.4322 33.3638 12.636 32.7402 11.9436 32.0472Z" fill="#EBDFE2"/>
<path d="M10.1777 29.8992L9.13916 30.5921C9.69305 31.4236 10.3508 32.2205 11.0778 32.9481L11.9433 32.0819C11.2855 31.389 10.697 30.6614 10.1777 29.8992Z" fill="#0099C3"/>
<path d="M14.228 33.9181L13.5356 34.9575C14.3665 35.5118 15.2666 35.9968 16.2359 36.3779L16.6859 35.2346C15.8551 34.8535 15.0242 34.4031 14.228 33.9181Z" fill="#0099C3"/>
<path d="M10.1083 14.2394L9.06975 13.5464C8.51585 14.3779 8.03119 15.2787 7.65039 16.2488L8.7928 16.6992C9.1736 15.8677 9.58902 15.0362 10.1083 14.2394Z" fill="#0099C3"/>
<path d="M21.9827 7.79528V6.54803C20.875 6.54803 19.8364 6.65197 18.7979 6.89449L19.0402 8.10709C20.0095 7.89922 20.9788 7.79528 21.9827 7.79528Z" fill="#EBDFE2"/>
<path d="M16.4093 8.9386L15.9247 7.79529C15.0592 8.17639 14.2284 8.62678 13.4321 9.14647L14.1245 10.1858C14.8169 9.7008 15.6131 9.28505 16.4093 8.9386Z" fill="#EBDFE2"/>
<path d="M19.0746 8.1071L18.8323 6.8945C17.8283 7.10237 16.859 7.41419 15.9243 7.79529L16.409 8.9386C17.2398 8.59214 18.1399 8.31497 19.0746 8.1071Z" fill="#0099C3"/>
<path d="M11.9432 11.9528L11.0777 11.0866C10.3161 11.8488 9.65834 12.6803 9.06982 13.5811L10.1084 14.274C10.6277 13.4425 11.2508 12.6457 11.9432 11.9528Z" fill="#EBDFE2"/>
<path d="M14.1245 10.1858L13.4322 9.14645C12.6013 9.70078 11.8051 10.3591 11.0781 11.0866L11.9436 11.9528C12.6013 11.2945 13.3283 10.7055 14.1245 10.1858Z" fill="#0099C3"/>
<path d="M35.8989 19.0898C36.1066 20.0252 36.2105 21.0299 36.2105 22.0347H37.4568C37.4568 20.926 37.3529 19.8866 37.1106 18.8473L35.8989 19.0898Z" fill="#EBDFE2"/>
<path d="M35.8989 24.7717L37.1106 25.0142C37.3183 24.0441 37.4221 23.0394 37.4221 22H36.1759C36.1759 22.9701 36.1066 23.8709 35.8989 24.7717Z" fill="#0099C3"/>
<path d="M32.0221 11.9527L32.8875 11.0866C32.1259 10.3244 31.2951 9.66612 30.395 9.07715L29.7026 10.1165C30.5681 10.6362 31.3297 11.2598 32.0221 11.9527Z" fill="#EBDFE2"/>
<path d="M35.1724 27.3008L36.3148 27.7512C36.661 26.8851 36.9379 25.9843 37.111 25.0142L35.8993 24.7717C35.7263 25.6378 35.4839 26.504 35.1724 27.3008Z" fill="#EBDFE2"/>
<path d="M16.7205 35.2L16.2705 36.3433C17.136 36.6898 18.036 36.9669 19.0054 37.1402L19.2477 35.9276C18.3476 35.7543 17.5168 35.5118 16.7205 35.2Z" fill="#EBDFE2"/>
<path d="M29.7372 10.1165L30.4296 9.07715C29.5987 8.52282 28.6986 8.03778 27.7293 7.65668L27.2793 8.79998C28.1448 9.18109 28.9756 9.59683 29.7372 10.1165Z" fill="#0099C3"/>
<path d="M27.2791 8.83466L27.7291 7.69135C26.8637 7.34489 25.9636 7.06773 24.9943 6.8945L24.752 8.1071C25.6174 8.24568 26.4829 8.4882 27.2791 8.83466Z" fill="#EBDFE2"/>
<path d="M33.8916 29.7607L34.9302 30.4536C35.484 29.6221 35.9687 28.7213 36.3495 27.7512L35.2071 27.3008C34.8263 28.167 34.3763 28.9984 33.8916 29.7607Z" fill="#0099C3"/>
<path d="M21.9829 36.2047V37.452C23.0907 37.452 24.1293 37.348 25.1678 37.1055L24.9255 35.8929C23.9562 36.1008 22.9868 36.2047 21.9829 36.2047Z" fill="#EBDFE2"/>
<path d="M24.7524 8.07244L24.9947 6.85985C24.0254 6.65197 23.0215 6.54803 21.9829 6.54803V7.79528C22.9522 7.79528 23.8869 7.89922 24.7524 8.07244Z" fill="#0099C3"/>
<path d="M19.2135 35.9276L18.9712 37.1402C19.9405 37.348 20.9444 37.452 21.983 37.452V36.2047C21.0483 36.2047 20.1136 36.1354 19.2135 35.9276Z" fill="#0099C3"/>
<path d="M24.9253 35.9276L25.1676 37.1402C26.1716 36.9323 27.1409 36.6205 28.0756 36.2394L27.5909 35.0961C26.7255 35.4425 25.8254 35.7197 24.9253 35.9276Z" fill="#0099C3"/>
<path d="M27.5908 35.0614L28.0755 36.2047C28.9409 35.8236 29.7718 35.3732 30.568 34.8535L29.8756 33.8142C29.1487 34.2992 28.387 34.715 27.5908 35.0614Z" fill="#EBDFE2"/>
<path d="M29.876 33.8142L30.5683 34.8535C31.3992 34.2992 32.1954 33.6409 32.9224 32.9134L32.0569 32.0472C31.3646 32.7055 30.6376 33.2945 29.876 33.8142Z" fill="#0099C3"/>
<path d="M4.43115 24.8063C4.43115 24.8409 4.43115 24.9102 4.46577 24.9448C4.46577 24.9102 4.46577 24.8409 4.43115 24.8063Z" fill="#0099C3"/>
<path d="M34.5493 34.5764C35.4148 33.7102 36.1764 32.7748 36.8341 31.7354C36.1764 32.7748 35.4148 33.7102 34.5493 34.5764Z" fill="#0099C3"/>
<path d="M16.79 39.011C17.2747 39.1495 17.7594 39.288 18.244 39.3918C17.7594 39.288 17.2747 39.1495 16.79 39.011Z" fill="#0099C3"/>
<path d="M16.0977 38.7685C16.3054 38.8377 16.4785 38.907 16.6862 38.9416C16.4785 38.907 16.3054 38.8377 16.0977 38.7685Z" fill="#0099C3"/>
<path d="M8.20452 10.7748C7.82372 11.2599 7.47753 11.7449 7.13135 12.2299C7.47753 11.7449 7.82372 11.2599 8.20452 10.7748Z" fill="#FAF8F9"/>
<path d="M8.79315 10.0819C8.62006 10.2896 8.41235 10.4973 8.23926 10.705C8.44697 10.5319 8.62006 10.2896 8.79315 10.0819Z" fill="#FAF8F9"/>
<path d="M2.38848 31.2504C2.28462 31.0079 2.18077 30.7654 2.07691 30.5228C1.52302 29.2409 1.1076 27.8551 0.796033 26.4693C0.657559 25.8803 0.588322 25.2913 0.519085 24.7024L0.20752 24.737C0.276756 25.3606 0.380612 25.9496 0.519085 26.5386C0.830651 27.9591 1.24607 29.3449 1.83459 30.6614C1.93844 30.9039 2.0423 31.1465 2.18077 31.389L2.38848 31.2504Z" fill="url(#paint1_linear)"/>
<path d="M37.3187 37.348C36.7648 37.9024 36.1417 38.4567 35.5186 38.9417L35.7263 39.1843C36.3494 38.6646 36.9725 38.1449 37.5264 37.5559C38.5996 36.4819 39.5343 35.304 40.3651 34.0567L40.0882 33.8835C39.292 35.1307 38.3573 36.3087 37.3187 37.348Z" fill="url(#paint2_linear)"/>
<path d="M13.9166 42.1637C12.9127 41.7826 11.978 41.2976 11.0779 40.7779L10.9048 41.0551C11.8395 41.6094 12.8088 42.0598 13.8127 42.4756C14.9551 42.926 16.1322 43.3071 17.3784 43.5496L17.4477 43.2378C16.236 42.9606 15.059 42.6141 13.9166 42.1637Z" fill="url(#paint3_linear)"/>
<path d="M41.9228 13.4772C42.4767 14.7591 42.8921 16.1449 43.2037 17.5307C43.3422 18.1197 43.4114 18.7087 43.4806 19.2976L43.7922 19.263C43.723 18.6394 43.6191 18.0504 43.4806 17.4614C43.1691 16.0409 42.7536 14.6551 42.1651 13.3386C42.0613 13.0961 41.9574 12.8535 41.8189 12.611L41.542 12.7496C41.7151 12.9921 41.8189 13.2346 41.9228 13.4772Z" fill="url(#paint4_linear)"/>
<path d="M30.0487 1.87048C31.0526 2.25158 31.9873 2.73662 32.8874 3.2563L33.0605 2.97914C32.1258 2.42481 31.1564 1.97441 30.1525 1.55867C29.0101 1.10827 27.8331 0.727169 26.5868 0.48465L26.5176 0.796461C27.7638 1.07363 28.9409 1.42008 30.0487 1.87048Z" fill="url(#paint5_linear)"/>
<path d="M0.484658 24.7024C0.380803 23.8016 0.311566 22.9008 0.311566 22C0.311566 20.5449 0.450039 19.1244 0.726987 17.7732C1.00393 16.4567 1.38474 15.1748 1.86939 13.9622C2.38867 12.6457 3.04642 11.3638 3.84264 10.1858L3.87726 10.1512L3.60031 9.97797L3.5657 10.0126C2.76947 11.1906 2.11172 12.4725 1.55783 13.8236C1.07317 15.0709 0.692368 16.3528 0.415421 17.7039C0.138474 19.0898 0 20.5449 0 22C0 22.9354 0.0692368 23.8362 0.173092 24.737L0.484658 24.7024Z" fill="url(#paint6_linear)"/>
<path d="M11.0779 40.7433C10.7664 40.5701 10.4548 40.3622 10.1432 40.1543C8.89698 39.3228 7.71995 38.3874 6.64678 37.3134C5.64284 36.3087 4.74277 35.2 3.94654 34.0221C3.35803 33.1213 2.83875 32.1858 2.3541 31.2158L2.07715 31.3543C2.52719 32.3244 3.08108 33.2945 3.6696 34.1953C4.46582 35.4079 5.40052 36.5165 6.40445 37.5213C7.47762 38.5953 8.65465 39.5654 9.93553 40.3969C10.2471 40.6047 10.5587 40.778 10.8702 40.9858L11.0779 40.7433Z" fill="url(#paint7_linear)"/>
<path d="M35.5185 38.9417C35.0339 39.3228 34.5492 39.7039 34.0299 40.0504C32.9221 40.7779 31.7451 41.4362 30.5335 41.9559C29.2526 42.5102 27.8678 42.926 26.4831 43.2378C25.0291 43.5496 23.5405 43.6882 22.0173 43.6882C20.5634 43.6882 19.144 43.5496 17.7939 43.2724C17.69 43.2378 17.5862 43.2378 17.4823 43.2031L17.4131 43.5149C17.5169 43.5496 17.6208 43.5496 17.7247 43.5842C19.1094 43.8614 20.5634 44 22.0173 44C23.5752 44 25.0984 43.8267 26.5523 43.5149C27.9717 43.2031 29.3564 42.7874 30.6719 42.1984C31.9182 41.6787 33.0952 41.0204 34.2376 40.2582C34.7569 39.9118 35.2762 39.5307 35.7608 39.1496L35.5185 38.9417Z" fill="url(#paint8_linear)"/>
<path d="M43.8267 19.263L43.5152 19.2976C43.619 20.1984 43.6883 21.0992 43.6883 22C43.6883 23.4551 43.5498 24.8756 43.2728 26.2268C42.9959 27.5433 42.6151 28.8252 42.1304 30.0378C41.6111 31.3543 40.9534 32.6362 40.1572 33.8142L40.1226 33.8488L40.3995 34.0221L40.4341 33.9874C41.2303 32.7748 41.8881 31.4929 42.442 30.1417C42.9266 28.8945 43.3421 27.6126 43.5844 26.2614C43.8613 24.8756 43.9998 23.4205 43.9998 21.9654C43.9998 21.0646 43.9306 20.1638 43.8267 19.263Z" fill="url(#paint9_linear)"/>
<path d="M32.8877 3.25668C33.1993 3.42991 33.5108 3.63778 33.8224 3.84566C35.0687 4.67715 36.2457 5.61259 37.3189 6.6866C38.3228 7.69133 39.2229 8.79999 40.0191 9.97794C40.6076 10.8787 41.1269 11.8142 41.6115 12.7842L41.8885 12.6457C41.4384 11.6756 40.8845 10.7055 40.296 9.80471C39.4998 8.59211 38.5651 7.48345 37.5612 6.47873C36.488 5.40471 35.311 4.43463 34.0301 3.60314C33.7185 3.39526 33.407 3.22203 33.0954 3.01416L32.8877 3.25668Z" fill="url(#paint10_linear)"/>
<path d="M8.44697 5.09291C8.93163 4.71181 9.41628 4.33071 9.93556 3.98425C11.0433 3.25669 12.2204 2.59843 13.432 2.07874C14.7129 1.52441 16.0976 1.10866 17.4824 0.79685C18.9363 0.485039 20.4249 0.346457 21.9481 0.346457C23.4021 0.346457 24.8215 0.485039 26.1716 0.762205C26.2754 0.79685 26.3793 0.79685 26.4832 0.831496L26.5524 0.519685C26.4485 0.485039 26.3447 0.485039 26.2408 0.450394C24.8907 0.138583 23.4714 0 21.9828 0C20.4249 0 18.9363 0.173228 17.4478 0.485039C16.0284 0.79685 14.6437 1.2126 13.3282 1.80157C12.0819 2.32126 10.9049 2.97953 9.76247 3.74173C9.24319 4.08819 8.72392 4.46929 8.23926 4.85039L8.44697 5.09291Z" fill="url(#paint11_linear)"/>
<path d="M6.68119 6.68662C7.23508 6.13229 7.85821 5.57796 8.48134 5.09292L8.27363 4.8504C7.6505 5.37009 7.02737 5.88977 6.47348 6.47875C5.4003 7.55277 4.46561 8.73072 3.63477 9.97796L3.91171 10.1512C4.67332 8.8693 5.60801 7.72599 6.68119 6.68662Z" fill="url(#paint12_linear)"/>
<path d="M25.7563 40.5701C25.7563 40.0851 26.1718 39.6693 26.6564 39.6693C27.1411 39.6693 27.5565 40.0851 27.5565 40.5701C27.5565 41.0551 27.1411 41.4709 26.6564 41.4709C26.1718 41.4709 25.7563 41.0551 25.7563 40.5701Z" fill="#FAF8F9"/>
<path d="M16.686 3.46457C16.686 2.97953 17.1015 2.56378 17.5861 2.56378C18.0708 2.56378 18.4862 2.97953 18.4862 3.46457C18.4862 3.94961 18.0708 4.36536 17.5861 4.36536C17.0668 4.36536 16.686 3.94961 16.686 3.46457Z" fill="#FAF8F9"/>
<path d="M2.354 18.6393C2.354 18.1543 2.76942 17.7386 3.25408 17.7386C3.73874 17.7386 4.15416 18.1543 4.15416 18.6393C4.15416 19.1244 3.73874 19.5401 3.25408 19.5401C2.73481 19.5401 2.354 19.1244 2.354 18.6393Z" fill="#FAF8F9"/>
<path d="M7.33887 35.2346C7.33887 34.7496 7.75429 34.3338 8.23895 34.3338C8.7236 34.3338 9.13902 34.7496 9.13902 35.2346C9.13902 35.7197 8.7236 36.1354 8.23895 36.1354C7.71967 36.1354 7.33887 35.7197 7.33887 35.2346Z" fill="#FAF8F9"/>
<path d="M39.6035 26.4C39.6035 25.915 40.0189 25.4992 40.5036 25.4992C40.9883 25.4992 41.4037 25.915 41.4037 26.4C41.4037 26.885 40.9883 27.3008 40.5036 27.3008C39.9843 27.3008 39.6035 26.885 39.6035 26.4Z" fill="#FAF8F9"/>
<path d="M35.1724 9.28503C35.1724 8.79999 35.5878 8.38425 36.0724 8.38425C36.5571 8.38425 36.9725 8.79999 36.9725 9.28503C36.9725 9.77007 36.5571 10.1858 36.0724 10.1858C35.5878 10.1858 35.1724 9.77007 35.1724 9.28503Z" fill="#FAF8F9"/>
<path d="M33.8914 29.7606C34.4107 28.9638 34.8261 28.1323 35.1723 27.2661C35.4839 26.4347 35.7608 25.6032 35.8993 24.7717C36.0724 23.8709 36.1763 22.9354 36.1763 22C36.1763 21.0299 36.0724 20.0252 35.8647 19.0898C35.6916 18.189 35.38 17.2882 35.0338 16.4221C34.6877 15.6252 34.2722 14.863 33.7876 14.1354C33.6837 13.9622 33.5453 13.789 33.4414 13.6158C33.4068 13.5811 33.3722 13.5118 33.3376 13.4772C33.2337 13.3732 33.1645 13.2347 33.0606 13.1307C33.026 13.0614 32.9914 13.0268 32.9221 12.9575C32.8183 12.8189 32.6798 12.6803 32.5413 12.5417L32.5067 12.4724C32.3682 12.2992 32.1951 12.126 32.0221 11.9528C31.849 11.7795 31.6759 11.6063 31.5028 11.4331L31.4682 11.3984C31.3297 11.2598 31.1566 11.1213 31.0181 11.0173C30.9489 10.9827 30.9143 10.9134 30.845 10.8787C30.7065 10.7748 30.6027 10.6709 30.4642 10.6016C30.395 10.5669 30.3604 10.5323 30.2911 10.4976C30.118 10.3591 29.9449 10.2551 29.7719 10.1165C28.9756 9.59686 28.1448 9.18111 27.2793 8.83465C26.4485 8.52284 25.6176 8.24567 24.7868 8.10709C23.8867 7.93386 22.952 7.82993 22.0173 7.82993C21.048 7.82993 20.0441 7.93386 19.1094 8.14174C18.2093 8.31496 17.3092 8.62678 16.4438 8.97323C15.6475 9.31969 14.8859 9.73544 14.1589 10.2205C13.3973 10.7402 12.6704 11.3291 12.0126 11.9874C11.3202 12.6803 10.6971 13.4772 10.1432 14.274C9.62394 15.0709 9.20852 15.9024 8.86233 16.7685C8.55077 17.6 8.27382 18.4315 8.13535 19.263C7.96225 20.1638 7.8584 21.0992 7.8584 22.0347C7.8584 23.0047 7.96225 24.0095 8.16996 24.9449C8.34306 25.8457 8.65462 26.7465 9.00081 27.6126C9.34699 28.4095 9.76241 29.1717 10.2471 29.8992C10.3509 30.0724 10.4894 30.2457 10.5933 30.4189C10.6279 30.4536 10.6625 30.5228 10.6971 30.5575C10.801 30.6614 10.8702 30.8 10.9741 30.9039C11.0087 30.9732 11.0433 31.0079 11.1125 31.0772C11.2164 31.2158 11.3549 31.3543 11.4933 31.4929C11.6664 31.6661 11.8395 31.874 12.0126 32.0473C12.705 32.7402 13.5012 33.3638 14.2974 33.9181C15.0936 34.4378 15.9245 34.8536 16.7899 35.2C17.6208 35.5118 18.4516 35.789 19.2825 35.9276C20.1826 36.1008 21.1172 36.2047 22.0519 36.2047C23.0213 36.2047 24.0252 36.1008 24.9599 35.8929C25.86 35.7197 26.7601 35.4079 27.6255 35.0614C28.4217 34.715 29.1833 34.2992 29.9103 33.8142C30.6719 33.2945 31.3989 32.7055 32.0567 32.0473C32.749 31.3543 33.3722 30.5921 33.8914 29.7606ZM33.5453 13.7543C33.5106 13.7197 33.5106 13.685 33.476 13.6504C33.5106 13.685 33.5106 13.7197 33.5453 13.7543ZM33.2683 13.4079C33.1991 13.3386 33.1298 13.2347 33.0606 13.1654C33.1298 13.2347 33.1991 13.3039 33.2683 13.4079ZM32.9221 12.9228C32.8183 12.7843 32.6798 12.6457 32.5759 12.5071C32.6798 12.6457 32.7837 12.7843 32.9221 12.9228ZM31.4335 11.3984C31.2951 11.2598 31.1566 11.1559 30.9835 11.0173C31.1566 11.1559 31.2951 11.2945 31.4335 11.3984ZM30.7758 10.8441C30.6719 10.7748 30.6027 10.7055 30.4988 10.6362C30.6027 10.7055 30.7065 10.7748 30.7758 10.8441ZM30.2219 10.4284C30.1873 10.3937 30.1527 10.3937 30.118 10.3591C30.1527 10.3937 30.1873 10.4284 30.2219 10.4284ZM10.4202 30.2457C10.4548 30.2803 10.4548 30.315 10.4894 30.3496C10.4894 30.315 10.4548 30.2803 10.4202 30.2457ZM10.6971 30.6268C10.7663 30.6961 10.8356 30.8 10.9048 30.8693C10.8356 30.8 10.7663 30.6961 10.6971 30.6268ZM11.0779 31.0772C11.1818 31.2158 11.3202 31.3543 11.4241 31.4929C11.3202 31.3543 11.1818 31.2158 11.0779 31.0772Z" fill="url(#paint13_linear)"/>
<path d="M35.588 19.159C35.415 18.2583 35.1034 17.3921 34.7572 16.5606C34.411 15.7638 33.9956 15.0362 33.5456 14.3087C33.0263 13.5464 32.4724 12.8535 31.8146 12.1953C31.1223 11.5024 30.3953 10.9134 29.5644 10.3937C28.8028 9.90865 28.0066 9.45826 27.1412 9.14645C26.3449 8.83464 25.5487 8.59212 24.6832 8.41889C24.4755 8.38424 24.3024 8.3496 24.0947 8.31495C24.0255 8.31495 23.9563 8.28031 23.9216 8.28031C23.7832 8.24566 23.6447 8.24566 23.4716 8.21102C23.4024 8.21102 23.3331 8.21102 23.2639 8.17637C23.0908 8.14172 22.8831 8.14172 22.71 8.14172H22.6408C22.3984 8.14172 22.1907 8.14172 21.9484 8.14172C21.7061 8.14172 21.4637 8.14172 21.2214 8.17637H21.1522C20.9445 8.17637 20.7714 8.21102 20.5637 8.21102C20.4944 8.21102 20.4252 8.21101 20.3559 8.24566C20.2175 8.28031 20.0444 8.28031 19.9059 8.31495C19.8367 8.31495 19.7674 8.3496 19.6982 8.3496C19.4905 8.38424 19.2828 8.41889 19.0751 8.45353C18.175 8.62676 17.3095 8.90393 16.4787 9.28503C15.6825 9.63149 14.9555 10.0472 14.2285 10.4976C13.4669 11.0173 12.7745 11.5716 12.1168 12.2299C11.4244 12.9228 10.8359 13.6504 10.3166 14.4819C9.83195 15.2441 9.38191 16.0409 9.07034 16.9071C8.75878 17.7039 8.51645 18.5008 8.34335 19.3669C8.17026 20.2331 8.06641 21.1685 8.06641 22.0693C8.06641 23.0394 8.17026 24.0094 8.37797 24.9449C8.55106 25.8457 8.86263 26.7118 9.20881 27.5433C9.555 28.3401 9.97042 29.0677 10.4205 29.7953C10.9397 30.5575 11.4936 31.2504 12.1514 31.9087C12.8437 32.6016 13.5707 33.1905 14.4016 33.7102C15.1632 34.1953 15.9594 34.6457 16.8249 34.9575C17.6211 35.2693 18.4173 35.5118 19.2828 35.685C19.4905 35.7197 19.6636 35.7543 19.8713 35.789C19.9405 35.789 20.0098 35.8236 20.0444 35.8236C20.1829 35.8583 20.3213 35.8583 20.4944 35.8929C20.5637 35.8929 20.6329 35.8929 20.7021 35.9275C20.8752 35.9622 21.0829 35.9622 21.256 35.9622C21.4984 35.9622 21.7407 35.9968 22.0176 35.9968C22.9869 35.9968 23.9563 35.8929 24.891 35.685C25.791 35.5118 26.6565 35.2346 27.4873 34.8535C28.2836 34.5071 29.0105 34.0913 29.7375 33.6409C30.4991 33.1213 31.1915 32.5669 31.8493 31.9087C32.5416 31.2157 33.1301 30.4882 33.6494 29.6567C34.1341 28.8945 34.5841 28.0976 34.8957 27.2315C35.2072 26.4346 35.4496 25.6378 35.6227 24.7716C35.7958 23.9055 35.8996 22.9701 35.8996 22.0693C35.8996 21.0299 35.7958 20.0598 35.588 19.159ZM24.3024 8.31495C24.2678 8.31495 24.2332 8.31495 24.164 8.28031C24.1986 8.28031 24.2332 8.28031 24.3024 8.31495ZM23.8524 8.24566C23.7485 8.24566 23.6447 8.21102 23.5408 8.21102C23.6447 8.21102 23.7485 8.21101 23.8524 8.24566ZM23.2639 8.17637C23.0908 8.17637 22.9177 8.14172 22.7446 8.14172C22.9177 8.14172 23.0908 8.14172 23.2639 8.17637ZM20.3559 8.21102C20.2521 8.21102 20.1482 8.24566 20.0098 8.24566C20.1482 8.24566 20.2521 8.21102 20.3559 8.21102ZM19.6982 8.31495C19.6636 8.31495 19.629 8.31495 19.5597 8.3496C19.629 8.31495 19.6636 8.31495 19.6982 8.31495ZM19.6982 35.7197C19.7328 35.7197 19.7674 35.7197 19.8367 35.7543C19.7674 35.7197 19.7328 35.7197 19.6982 35.7197ZM20.1482 35.789C20.2521 35.789 20.3559 35.8236 20.4598 35.8236C20.3559 35.8236 20.2521 35.789 20.1482 35.789ZM20.7021 35.8583C20.8752 35.8583 21.0483 35.8929 21.2214 35.8929C21.0483 35.8929 20.8752 35.8583 20.7021 35.8583Z" fill="#00B9ED"/>
<defs>
<linearGradient id="paint0_linear" x1="33.1377" y1="33.1661" x2="10.8922" y2="10.9381" gradientUnits="userSpaceOnUse">
<stop stop-color="#00E7EB"/>
<stop offset="0.2396" stop-color="#00D9E4"/>
<stop offset="0.6872" stop-color="#00B6D2"/>
<stop offset="1" stop-color="#0099C3"/>
</linearGradient>
<linearGradient id="paint1_linear" x1="0.23812" y1="28.3354" x2="1.53378" y2="27.9518" gradientUnits="userSpaceOnUse">
<stop stop-color="#9FA3A5"/>
<stop offset="0.2936" stop-color="#C6C8C9"/>
<stop offset="0.5842" stop-color="#E5E6E7"/>
<stop offset="0.8296" stop-color="#F8F8F9"/>
<stop offset="1" stop-color="white"/>
</linearGradient>
<linearGradient id="paint2_linear" x1="39.2259" y1="37.8036" x2="37.3586" y2="35.9378" gradientUnits="userSpaceOnUse">
<stop stop-color="#9FA3A5"/>
<stop offset="0.2936" stop-color="#C6C8C9"/>
<stop offset="0.5842" stop-color="#E5E6E7"/>
<stop offset="0.8296" stop-color="#F8F8F9"/>
<stop offset="1" stop-color="white"/>
</linearGradient>
<linearGradient id="paint3_linear" x1="13.8523" y1="43.0312" x2="14.3481" y2="41.7483" gradientUnits="userSpaceOnUse">
<stop stop-color="#9FA3A5"/>
<stop offset="0.2936" stop-color="#C6C8C9"/>
<stop offset="0.5842" stop-color="#E5E6E7"/>
<stop offset="0.8296" stop-color="#F8F8F9"/>
<stop offset="1" stop-color="white"/>
</linearGradient>
<linearGradient id="paint4_linear" x1="44.2296" y1="15.6297" x2="41.8892" y2="16.1694" gradientUnits="userSpaceOnUse">
<stop stop-color="#9FA3A5"/>
<stop offset="0.2936" stop-color="#C6C8C9"/>
<stop offset="0.5842" stop-color="#E5E6E7"/>
<stop offset="0.8296" stop-color="#F8F8F9"/>
<stop offset="1" stop-color="white"/>
</linearGradient>
<linearGradient id="paint5_linear" x1="30.5426" y1="0.0386416" x2="29.6305" y2="2.24507" gradientUnits="userSpaceOnUse">
<stop stop-color="#9FA3A5"/>
<stop offset="0.2936" stop-color="#C6C8C9"/>
<stop offset="0.5842" stop-color="#E5E6E7"/>
<stop offset="0.8296" stop-color="#F8F8F9"/>
<stop offset="1" stop-color="white"/>
</linearGradient>
<linearGradient id="paint6_linear" x1="0.125448" y1="16.7349" x2="-2.08848" y2="15.9686" gradientUnits="userSpaceOnUse">
<stop stop-color="#00EAE6"/>
<stop offset="0.4675" stop-color="#00E8E5"/>
<stop offset="0.6369" stop-color="#00E1E2"/>
<stop offset="0.7578" stop-color="#00D5DD"/>
<stop offset="0.8556" stop-color="#00C5D6"/>
<stop offset="0.9384" stop-color="#00AFCC"/>
<stop offset="1" stop-color="#0099C3"/>
</linearGradient>
<linearGradient id="paint7_linear" x1="6.62239" y1="36.1018" x2="4.94222" y2="37.6993" gradientUnits="userSpaceOnUse">
<stop stop-color="#00DDE2"/>
<stop offset="0.2173" stop-color="#00D5DE"/>
<stop offset="0.5493" stop-color="#00C0D5"/>
<stop offset="0.9526" stop-color="#009EC5"/>
<stop offset="1" stop-color="#0099C3"/>
</linearGradient>
<linearGradient id="paint8_linear" x1="26.2731" y1="40.2766" x2="27.3627" y2="44.5673" gradientUnits="userSpaceOnUse">
<stop stop-color="#00A6BE"/>
<stop offset="0.2698" stop-color="#0096B6"/>
<stop offset="0.5811" stop-color="#008DB1"/>
<stop offset="1" stop-color="#008AAF"/>
</linearGradient>
<linearGradient id="paint9_linear" x1="39.1481" y1="22.2799" x2="42.6724" y2="27.6584" gradientUnits="userSpaceOnUse">
<stop stop-color="#00E5FD"/>
<stop offset="0.4752" stop-color="#00E3FC"/>
<stop offset="0.6464" stop-color="#00DCF6"/>
<stop offset="0.7685" stop-color="#00D1ED"/>
<stop offset="0.8671" stop-color="#00C0E0"/>
<stop offset="0.9506" stop-color="#00AAD0"/>
<stop offset="1" stop-color="#0099C3"/>
</linearGradient>
<linearGradient id="paint10_linear" x1="36.3386" y1="8.46222" x2="38.9007" y2="6.99028" gradientUnits="userSpaceOnUse">
<stop stop-color="#00EAE6"/>
<stop offset="0.4675" stop-color="#00E8E5"/>
<stop offset="0.6369" stop-color="#00E1E2"/>
<stop offset="0.7578" stop-color="#00D5DD"/>
<stop offset="0.8556" stop-color="#00C5D6"/>
<stop offset="0.9384" stop-color="#00AFCC"/>
<stop offset="1" stop-color="#0099C3"/>
</linearGradient>
<linearGradient id="paint11_linear" x1="16.7397" y1="0.187603" x2="16.3058" y2="-1.34976" gradientUnits="userSpaceOnUse">
<stop stop-color="#00EAE6"/>
<stop offset="0.4675" stop-color="#00E8E5"/>
<stop offset="0.6369" stop-color="#00E1E2"/>
<stop offset="0.7578" stop-color="#00D5DD"/>
<stop offset="0.8556" stop-color="#00C5D6"/>
<stop offset="0.9384" stop-color="#00AFCC"/>
<stop offset="1" stop-color="#0099C3"/>
</linearGradient>
<linearGradient id="paint12_linear" x1="4.2096" y1="5.79298" x2="6.36419" y2="7.7872" gradientUnits="userSpaceOnUse">
<stop stop-color="#9FA3A5"/>
<stop offset="0.2936" stop-color="#C6C8C9"/>
<stop offset="0.5842" stop-color="#E5E6E7"/>
<stop offset="0.8296" stop-color="#F8F8F9"/>
<stop offset="1" stop-color="white"/>
</linearGradient>
<linearGradient id="paint13_linear" x1="11.9144" y1="11.9237" x2="32.008" y2="32.0016" gradientUnits="userSpaceOnUse">
<stop stop-color="#00E7EB"/>
<stop offset="0.2396" stop-color="#00D9E4"/>
<stop offset="0.6872" stop-color="#00B6D2"/>
<stop offset="1" stop-color="#0099C3"/>
</linearGradient>
</defs>
</svg>
